<svg xmlns="http://www.w3.org/2000/svg" width="64" height="64" fill="none"><g clip-path="url(#a)"><path fill="#2E2F42" d="M62.5933 30.6025C62.5899 13.6978 48.8828-.0035 31.9775 0 15.0728.0034 1.3715 13.7109 1.375 30.6157c.003 13.3159 8.6138 25.1021 21.2988 29.1524a1.229 1.229 0 0 0 .3736.0571 1.351 1.351 0 0 0 .685-.1875c.27-.1597.4717-.4136.5664-.7129l7.73-24.5c2.1133-.0107 3.8174-1.7329 3.8062-3.8457-.0108-2.1133-1.7325-3.8174-3.8457-3.8066a3.7744 3.7744 0 0 0-1.6402.3828L20.1372 16.9419c-.5068-.4893-1.314-.4751-1.8032.0312-.4776.4947-.4776 1.2779 0 1.7725l10.2065 10.2183c-.7832 1.5986-.3354 3.5283 1.0728 4.6181L22.248 56.9277C7.6924 51.5659.2393 35.4199 5.601 20.8643 10.963 6.3086 27.109-1.1445 41.6647 4.2173 56.2202 9.579 63.6733 25.7256 58.3115 40.2808a28.087 28.087 0 0 1-14.9243 15.9467l-.7959-3.7485c-.1455-.689-.8227-1.1294-1.5117-.9834a1.2819 1.2819 0 0 0-.585.2964l-7.6738 6.8511c-.5264.4682-.5732 1.2744-.1045 1.8008.1524.1709.3477.2978.5664.3676l9.7974 3.127c.6704.2153 1.3887-.1533 1.604-.8242a1.2765 1.2765 0 0 0 .0337-.6553l-.7822-3.6782c11.3286-4.7759 18.684-15.8843 18.6577-28.1783Zm-30.6089-1.2753c.7041 0 1.2754.5712 1.2754 1.2753 0 .7046-.5713 1.2754-1.2754 1.2754-.7046 0-1.2754-.5708-1.2754-1.2754 0-.7041.5708-1.2753 1.2754-1.2753Zm4.2007 29.728 4.3681-3.8965 1.2056 5.6807-5.5737-1.7842Z"/><path fill="#4D5AE5" d="M30.709 6.3701V8.921c0 .7046.5708 1.2754 1.2754 1.2754.7041 0 1.2754-.5708 1.2754-1.2754V6.3701c0-.704-.5713-1.2754-1.2754-1.2754-.7046 0-1.2754.5713-1.2754 1.2754ZM7.752 29.3271c-.7046 0-1.2754.5713-1.2754 1.2754 0 .7046.5708 1.2754 1.2753 1.2754h2.5508c.7046 0 1.2754-.5708 1.2754-1.2754 0-.7041-.5708-1.2754-1.2754-1.2754H7.752ZM56.2162 31.8779c.7046 0 1.2754-.5708 1.2754-1.2754 0-.7041-.5708-1.2754-1.2754-1.2754h-2.5507c-.7041 0-1.2754.5713-1.2754 1.2754 0 .7046.5713 1.2754 1.2754 1.2754h2.5507Z"/></g><defs><clipPath id="a"><path fill="#fff" d="M0 0h64v64H0z"/></clipPath></defs></svg>