<svg xmlns="http://www.w3.org/2000/svg" width="64" height="64" fill="none"><g clip-path="url(#a)"><path fill="#4D5AE5" d="M29.8511 29.9292h2.1322v9.595h-2.1322v-9.595ZM38.3799 34.1936h2.1322v5.3306h-2.1322v-5.3306ZM21.3221 37.392h2.1323v2.1322h-2.1323V37.392ZM14.9255 36.3258h2.1323v3.1983h-2.1323v-3.1983Z"/><path fill="#2E2F42" d="M3.1983 56.5819h51.1732c1.7663 0 3.1984-1.432 3.1984-3.1983v-4.2644c0-1.7663-1.4321-3.1983-3.1984-3.1983h-1.0661V19.3343l6.0557-5.7366c1.4055.6928 3.1067.2722 4.0265-.9974.9204-1.2691.7913-3.0167-.305-4.137-1.0963-1.1202-2.8402-1.2873-4.1296-.3955-1.2889.8922-1.747 2.5835-1.0849 4.0041l-4.5627 4.3254v-2.4597c0-1.7663-1.432-3.1983-3.1983-3.1983H7.4628c-1.7663 0-3.1984 1.432-3.1984 3.1983v31.9833h-1.066C1.432 45.9209 0 47.3529 0 49.1192v4.2644c0 1.7663 1.432 3.1983 3.1983 3.1983ZM60.7682 9.6732c.5887 0 1.0661.4773 1.0661 1.0661 0 .5887-.4774 1.0661-1.0661 1.0661-.5888 0-1.0661-.4774-1.0661-1.0661 0-.5888.4773-1.0661 1.0661-1.0661ZM6.3967 13.9376c0-.5887.4773-1.0661 1.066-1.0661h42.6444c.5887 0 1.0661.4774 1.0661 1.0661v4.4773L49.041 20.441v-4.3712c0-.5887-.4774-1.0661-1.0661-1.0661h-38.38c-.5887 0-1.066.4774-1.066 1.0661v26.6527c0 .5888.4773 1.0661 1.066 1.0661h38.38c.5887 0 1.0661-.4773 1.0661-1.0661V23.3738l2.1322-2.0203v24.5674H6.3966V13.9376Zm9.5949 13.8594c-1.4424-.0041-2.709.9568-3.0926 2.3472-.3837 1.3904.2103 2.8652 1.4508 3.6013 1.24.736 2.8199.5512 3.8563-.4519l3.7059 1.8595a1.0659 1.0659 0 0 0 1.2727-.2452l7.8777-8.8626 7.7438 5.8027c.4154.3113.9954.278 1.3722-.0786l6.7304-6.3753v16.2623H10.6611V17.1359h36.2477v5.3207l-7.543 7.1431-7.8089-5.8542a1.0669 1.0669 0 0 0-1.4362.1442l-7.9859 8.9854-2.9855-1.493a3.0249 3.0249 0 0 0 .0407-.3868c0-1.7662-1.4321-3.1983-3.1984-3.1983Zm1.0661 3.1983c0 .5888-.4773 1.0662-1.0661 1.0662-.5887 0-1.0661-.4774-1.0661-1.0662 0-.5887.4774-1.0661 1.0661-1.0661.5888 0 1.0661.4774 1.0661 1.0661Zm6.3967 17.0578h10.6611v1.0661c0 .5887-.4774 1.0661-1.0661 1.0661h-8.5289c-.5888 0-1.0661-.4774-1.0661-1.0661v-1.0661ZM2.1322 49.1192c0-.5888.4774-1.0661 1.0661-1.0661h18.1239v1.0661c0 1.7663 1.432 3.1983 3.1983 3.1983h8.5289c1.7662 0 3.1983-1.432 3.1983-3.1983v-1.0661h18.1238c.5888 0 1.0661.4773 1.0661 1.0661v4.2644c0 .5888-.4773 1.0661-1.0661 1.0661H3.1983c-.5887 0-1.066-.4773-1.066-1.0661v-4.2644Z"/></g><defs><clipPath id="a"><path fill="#fff" d="M0 0h64v64H0z"/></clipPath></defs></svg>