<svg xmlns="http://www.w3.org/2000/svg" width="84" height="41" fill="none"><path fill="#8E8F99" d="M13.0782 12.5179h-.0029c-2.3856 0-4.3196 1.7437-4.3196 3.8945v.0026c0 2.1508 1.934 3.8944 4.3196 3.8944h.0029c2.3856 0 4.3196-1.7436 4.3196-3.8944v-.0026c0-2.1508-1.934-3.8945-4.3196-3.8945ZM44.9614 11.273c-.0067-2.9875-1.3258-5.8509-3.6685-7.9636C38.9502 1.1967 35.7746.0068 32.4611 0c-3.3145.0054-6.4915 1.1948-8.8354 3.3076-2.344 2.1128-3.6638 4.977-3.6706 7.9654v16.4742s25.0035-2.5108 25.0063-16.4717v-.0025ZM0 33.1543c.006 2.0787.9243 4.0708 2.5543 5.5409C4.1843 40.1653 6.3934 40.9939 8.699 41c2.305-.0061 4.5137-.8343 6.1436-2.3039 1.6299-1.4696 2.5486-3.461 2.5554-5.5392V21.6938S0 23.4422 0 33.1543Zm8.699 2.0539c-.4506 0-.891-.1205-1.2656-.3462-.3746-.2256-.6666-.5464-.839-.9217-.1724-.3753-.2175-.7883-.1296-1.1867.0879-.3984.3048-.7643.6234-1.0516.3186-.2872.7245-.4828 1.1664-.5621.4419-.0792.8999-.0385 1.3161.1169.4163.1555.772.4187 1.0223.7565.2503.3377.3839.7348.3839 1.141a1.8778 1.8778 0 0 1-.1709.7884c-.114.25-.2816.4774-.4932.6689-.2117.1915-.4632.3435-.7401.4472a2.4952 2.4952 0 0 1-.8737.1571v-.0077ZM24.6089 31.515v4.2656H23.73V31.515h.8789Zm1.6992 1.8223v.6855h-1.9394v-.6855h1.9394Zm.2051-1.8223v.6885h-2.1445v-.6885h2.1445Zm4.0137 2.0332v.2022c0 .3242-.044.6152-.1319.873-.0879.2578-.2119.4776-.3721.6592a1.612 1.612 0 0 1-.5742.4131c-.2207.0957-.4658.1435-.7353.1435-.2676 0-.5127-.0478-.7354-.1435a1.6478 1.6478 0 0 1-.5742-.4131c-.1621-.1816-.2881-.4014-.3779-.6592-.0879-.2578-.1319-.5488-.1319-.873v-.2022c0-.3262.044-.6172.1319-.873.0879-.2578.2119-.4776.372-.6592a1.633 1.633 0 0 1 .5743-.416c.2226-.0957.4677-.1436.7353-.1436.2696 0 .5147.0479.7354.1436.2226.0957.414.2344.5742.416.1621.1816.2871.4014.375.6592.0898.2558.1348.5468.1348.873Zm-.8877.2022v-.208c0-.2266-.0205-.4258-.0616-.5977-.041-.1719-.1015-.3164-.1816-.4336-.0801-.1172-.1777-.2051-.293-.2637-.1152-.0605-.247-.0908-.3955-.0908-.1484 0-.2803.0303-.3955.0908-.1133.0586-.2099.1465-.29.2637-.0782.1172-.1377.2617-.1787.4336-.0411.1719-.0616.3711-.0616.5977v.208c0 .2246.0205.4238.0616.5976.041.1719.1015.3174.1816.4365.0801.1172.1777.2061.293.2666.1152.0606.247.0909.3955.0909.1484 0 .2803-.0303.3955-.0909.1152-.0605.2119-.1494.29-.2666.0782-.1191.1377-.2646.1787-.4365.0411-.1738.0616-.373.0616-.5976Zm3.7412.914c0-.0761-.0117-.1445-.0352-.205-.0215-.0625-.0625-.1192-.123-.17-.0606-.0527-.1455-.1045-.2549-.1552-.1094-.0508-.251-.1036-.4248-.1582a5.3767 5.3767 0 0 1-.5508-.211c-.1719-.0781-.3242-.1689-.457-.2724-.1309-.1055-.2344-.2276-.3106-.3663-.0742-.1386-.1113-.2998-.1113-.4834 0-.1777.0391-.3388.1172-.4834.0781-.1464.1875-.2714.3281-.375.1406-.1054.3066-.1865.4981-.2431.1933-.0567.4052-.085.6357-.085.3144 0 .5889.0567.8232.1699.2344.1133.4161.2686.545.4659.1308.1972.1962.4228.1962.6767h-.873c0-.125-.0264-.2344-.0791-.3281-.0508-.0957-.1289-.1709-.2344-.2256-.1035-.0547-.2344-.082-.3926-.082-.1523 0-.2793.0234-.3808.0703-.1016.0449-.1777.1064-.2285.1846-.0508.0761-.0762.1621-.0762.2578 0 .0722.0176.1377.0527.1963.0371.0586.0918.1132.1641.164.0723.0508.1611.0987.2666.1436.1055.0449.2275.0888.3662.1318.2324.0703.4365.1494.6123.2373.1777.0879.3262.1865.4453.2959.1192.1094.209.2334.2696.3721.0605.1387.0908.2959.0908.4717 0 .1855-.0362.3515-.1084.498-.0723.1465-.1768.2705-.3135.3721-.1367.1015-.2998.1787-.4893.2314-.1894.0528-.4013.0791-.6357.0791a2.4114 2.4114 0 0 1-.624-.082c-.2051-.0566-.3916-.1416-.5596-.2549a1.2846 1.2846 0 0 1-.3984-.4336c-.0996-.1758-.1494-.3838-.1494-.624h.8818c0 .1328.0205.2451.0615.3369.041.0918.0986.166.1729.2227.0761.0566.166.0976.2695.123.1055.0254.2207.0381.3457.0381.1523 0 .2773-.0215.375-.0644.0996-.043.1729-.1026.2197-.1788.0489-.0761.0733-.1621.0733-.2578Zm3.3838-3.1494v4.2656h-.876V31.515h.876Zm1.3125 0v.6885h-3.4805v-.6885h3.4805Zm3.3632 3.5801v.6855h-2.2705v-.6855h2.2705Zm-1.9834-3.5801v4.2656h-.8789V31.515h.8789Zm1.6875 1.7373v.668h-1.9746v-.668h1.9746Zm.293-1.7373v.6885h-2.2676v-.6885h2.2676Zm.5156 0h1.5909c.3261 0 .6064.0488.8408.1465.2363.0977.4179.2422.5449.4336.127.1914.1904.4268.1904.706 0 .2286-.039.4249-.1172.5889a1.1007 1.1007 0 0 1-.3252.4072c-.1386.1075-.3017.1934-.4892.2579l-.2783.1464h-1.3828l-.0059-.6855h1.0283c.1543 0 .2822-.0274.3838-.082.1016-.0547.1777-.1309.2285-.2286.0528-.0976.0791-.2109.0791-.3398 0-.1367-.0254-.2549-.0761-.3545-.0508-.0996-.128-.1758-.2315-.2285-.1035-.0527-.2334-.0791-.3896-.0791h-.712v3.5771h-.8789V31.515Zm2.3848 4.2656-.9727-1.9013.9288-.0059.9843 1.8662v.041h-.9404Zm4.6143-1.5205h-1.087v-.6855h1.087c.1679 0 .3046-.0274.4101-.082.1055-.0567.1826-.1348.2315-.2344.0488-.0996.0732-.2119.0732-.3369 0-.127-.0244-.2452-.0732-.3545-.0489-.1094-.126-.1973-.2315-.2637-.1055-.0664-.2422-.0996-.4101-.0996h-.7823v3.5771h-.8789V31.515h1.6612c.3339 0 .6201.0606.8584.1817.2402.1191.4238.2841.5507.4951.127.2109.1905.4521.1905.7236 0 .2754-.0635.5137-.1905.7148-.1269.2012-.3105.3565-.5507.4659-.2383.1093-.5245.164-.8584.164Zm5.0683.835v.6855h-2.2705v-.6855H54.02Zm-1.9834-3.5801v4.2656h-.8789V31.515h.8789Zm1.6875 1.7373v.668h-1.9746v-.668h1.9746Zm.293-1.7373v.6885h-2.2676v-.6885h2.2676Zm2.4814 0v4.2656h-.8759V31.515h.8759Zm1.3125 0v.6885h-3.4804v-.6885h3.4804Zm3.3633 3.5801v.6855h-2.2705v-.6855h2.2705Zm-1.9834-3.5801v4.2656h-.8789V31.515h.8789Zm1.6875 1.7373v.668h-1.9746v-.668h1.9746Zm.293-1.7373v.6885h-2.2676v-.6885h2.2676Zm.5156 0h1.5908c.3262 0 .6065.0488.8409.1465.2363.0977.4179.2422.5449.4336.1269.1914.1904.4268.1904.706 0 .2286-.0391.4249-.1172.5889a1.1027 1.1027 0 0 1-.3252.4072c-.1387.1075-.3017.1934-.4892.2579l-.2784.1464h-1.3828l-.0058-.6855h1.0283c.1543 0 .2822-.0274.3838-.082.1015-.0547.1777-.1309.2285-.2286.0527-.0976.0791-.2109.0791-.3398 0-.1367-.0254-.2549-.0762-.3545-.0508-.0996-.1279-.1758-.2314-.2285-.1035-.0527-.2334-.0791-.3897-.0791h-.7119v3.5771h-.8789V31.515Zm2.3848 4.2656-.9727-1.9013.9287-.0059.9844 1.8662v.041h-.9404Zm3.6797-1.1162c0-.0761-.0118-.1445-.0352-.205-.0215-.0625-.0625-.1192-.123-.17-.0606-.0527-.1455-.1045-.2549-.1552-.1094-.0508-.251-.1036-.4248-.1582a5.3767 5.3767 0 0 1-.5508-.211c-.1719-.0781-.3242-.1689-.457-.2724-.1309-.1055-.2344-.2276-.3106-.3663-.0742-.1386-.1113-.2998-.1113-.4834 0-.1777.039-.3388.1172-.4834.0781-.1464.1875-.2714.3281-.375.1406-.1054.3066-.1865.498-.2431.1934-.0567.4053-.085.6358-.085.3144 0 .5889.0567.8232.1699.2344.1133.416.2686.545.4659.1308.1972.1962.4228.1962.6767h-.873c0-.125-.0264-.2344-.0791-.3281-.0508-.0957-.1289-.1709-.2344-.2256-.1035-.0547-.2344-.082-.3926-.082-.1523 0-.2793.0234-.3808.0703-.1016.0449-.1778.1064-.2285.1846-.0508.0761-.0762.1621-.0762.2578 0 .0722.0176.1377.0527.1963.0371.0586.0918.1132.1641.164.0723.0508.1611.0987.2666.1436.1055.0449.2275.0888.3662.1318.2324.0703.4365.1494.6123.2373.1777.0879.3262.1865.4453.2959.1192.1094.209.2334.2696.3721.0605.1387.0908.2959.0908.4717 0 .1855-.0362.3515-.1084.498-.0723.1465-.1768.2705-.3135.3721-.1367.1015-.2998.1787-.4893.2314-.1894.0528-.4013.0791-.6357.0791a2.4114 2.4114 0 0 1-.624-.082c-.2051-.0566-.3916-.1416-.5596-.2549a1.2846 1.2846 0 0 1-.3984-.4336c-.0996-.1758-.1494-.3838-.1494-.624h.8818c0 .1328.0205.2451.0615.3369.041.0918.0986.166.1729.2227.0761.0566.166.0976.2695.123.1055.0254.2207.0381.3457.0381.1523 0 .2773-.0215.375-.0644.0996-.043.1728-.1026.2197-.1788.0489-.0761.0733-.1621.0733-.2578Z"/></svg>