<svg xmlns="http://www.w3.org/2000/svg" width="44" height="41" fill="none"><path fill="#8E8F99" d="M6.8098 40.2233a.1387.1387 0 0 1 .0467.0091.1231.1231 0 0 1 .0389.0239l.2208.2076c-.1714.168-.3833.3023-.621.3939a2.4556 2.4556 0 0 1-.8806.1415 2.3807 2.3807 0 0 1-.8281-.1321c-.2368-.0846-.4496-.2117-.6239-.3727-.1778-.167-.3149-.3626-.403-.5755a1.8897 1.8897 0 0 1-.1407-.7383 1.7653 1.7653 0 0 1 .1518-.7407c.0964-.2142.2419-.4099.4278-.5755.1885-.1625.414-.2901.6625-.3751.2719-.09.5614-.1349.853-.1321a2.3335 2.3335 0 0 1 .7922.1203 2.148 2.148 0 0 1 .5935.3326l-.185.2217a.179.179 0 0 1-.047.0401.128.128 0 0 1-.0744.0166.1825.1825 0 0 1-.08-.0236l-.0995-.059-.138-.0755a1.599 1.599 0 0 0-.185-.0731 1.965 1.965 0 0 0-.2511-.059 1.97 1.97 0 0 0-.3285-.0236 1.813 1.813 0 0 0-.6128.0991c-.1814.0626-.345.1575-.4803.2783-.1376.1285-.2437.2793-.312.4435a1.4704 1.4704 0 0 0-.113.585c-.0034.2022.0349.4034.113.5944.0674.1627.1715.3126.3065.4411.1264.1198.2831.2133.4582.2736.1802.0638.3736.0959.5686.0944a2.4587 2.4587 0 0 0 .3368-.0189 1.347 1.347 0 0 0 .5107-.1581 1.6694 1.6694 0 0 0 .218-.1462.1745.1745 0 0 1 .105-.0377ZM13.1861 39.1803a1.775 1.775 0 0 1-.149.7335c-.09.2128-.2317.4069-.4158.5696-.1842.1626-.4065.29-.6525.3739a2.7315 2.7315 0 0 1-1.6782 0c-.2444-.0852-.4653-.2129-.6487-.3751-.184-.1655-.3268-.3613-.4196-.5755-.1988-.475-.1988-.9943 0-1.4694.0942-.2142.2367-.4106.4196-.5778.185-.1571.4057-.2799.6487-.3609a2.6852 2.6852 0 0 1 1.6782 0c.2452.0851.4671.2128.6515.375.1817.164.3234.3572.4168.5684.1022.2362.1528.4865.149.7383Zm-.5796 0a1.5368 1.5368 0 0 0-.1049-.5897c-.0619-.1628-.1624-.3129-.2954-.441-.1294-.1212-.2888-.2163-.4665-.2783a1.9714 1.9714 0 0 0-1.22 0c-.1778.062-.3371.1571-.4665.2783-.1348.1273-.2364.2776-.2981.441a1.703 1.703 0 0 0 0 1.1793c.0623.1632.1638.3134.2981.4411.1296.1205.2889.2147.4665.276a2.0222 2.0222 0 0 0 1.22 0c.1776-.0613.3369-.1555.4665-.276.1324-.1284.2329-.2785.2954-.4411.0741-.19.1095-.3894.1049-.5896ZM17.5365 39.7987l.0579.1321c.0221-.0472.0414-.0896.0635-.1321a1.2115 1.2115 0 0 1 .0718-.1297l1.4105-2.1909c.0276-.0377.0525-.0613.0801-.0684a.3884.3884 0 0 1 .1159-.0118h.4168v3.5635h-.4941v-2.731a.9288.9288 0 0 1 0-.1226l-1.4188 2.2215a.2031.2031 0 0 1-.0831.0811.252.252 0 0 1-.1212.0298h-.08a.2495.2495 0 0 1-.1215-.0294.2008.2008 0 0 1-.0828-.0815l-1.4602-2.2356v2.8606h-.4775v-3.5564h.4168a.3888.3888 0 0 1 .1159.0118.155.155 0 0 1 .0773.0684l1.4409 2.1933a.7526.7526 0 0 1 .0718.1273ZM22.8447 39.6217v1.3347h-.5521v-3.5586h1.2311a2.6754 2.6754 0 0 1 .6873.0778c.1787.0433.3444.1189.4859.2217.1226.0964.2171.2159.276.349.0652.1452.097.2997.0938.4552a1.005 1.005 0 0 1-.1021.4551c-.0663.1366-.1683.2584-.2981.3561-.1416.1071-.3081.1875-.4886.2359a2.373 2.373 0 0 1-.6652.0825l-.668-.0094Zm0-.3821h.668a1.5709 1.5709 0 0 0 .4278-.0542.9408.9408 0 0 0 .3092-.1533.6343.6343 0 0 0 .1877-.2358.673.673 0 0 0 .0662-.2995.5919.5919 0 0 0-.0553-.2899.6873.6873 0 0 0-.1931-.2431c-.2109-.1407-.4758-.2088-.7425-.191h-.668v1.4668ZM30.2645 40.9613h-.4362a.21.21 0 0 1-.1214-.0331.2242.2242 0 0 1-.0718-.0825l-.3754-.8609h-1.8853l-.3892.8609a.1962.1962 0 0 1-.069.0802.2099.2099 0 0 1-.1242.0354h-.4362l1.6562-3.5638h.5742l1.6783 3.5638Zm-2.7328-1.3232h1.5569l-.657-1.4505a2.3318 2.3318 0 0 1-.1242-.3349l-.0635.1863a1.659 1.659 0 0 1-.0607.1509l-.6515 1.4482ZM32.6495 37.414a.2344.2344 0 0 1 .0828.0637l2.4153 2.6864v-2.7666h.4941v3.5638h-.276a.273.273 0 0 1-.1132-.0212.3003.3003 0 0 1-.0883-.0661l-2.4125-2.684a.9645.9645 0 0 1 0 .1226v2.6487h-.4941v-3.5638h.2926a.2685.2685 0 0 1 .0993.0165ZM39.7104 39.5438v1.4151h-.5521v-1.4151l-1.5265-2.1463h.4941a.2014.2014 0 0 1 .1187.0307.3128.3128 0 0 1 .0746.0802l.9551 1.3844a2.142 2.142 0 0 1 .0993.1651c.0276.0519.0497.1014.069.151l.0718-.1533a1.2272 1.2272 0 0 1 .0939-.1628l.9412-1.3939a.376.376 0 0 1 .0718-.0754.187.187 0 0 1 .1187-.0354h.4996l-1.5292 2.1557ZM17.2632 31.417c.2401.0259.483.0472.7287.066 3.7246-1.4235 6.8754-3.7535 9.0587-6.6986 2.1832-2.9451 3.3021-6.3747 3.2166-9.8601l-4.1046-3.5071c.8346 3.7109.4442 7.547-1.1275 11.0791-1.5717 3.5321-4.2627 6.6208-7.7719 8.9207Z"/><path fill="#8E8F99" d="m15.7975 31.2539.1104.0189c3.7499-2.2917 6.6089-5.4919 8.2072-9.1867 1.5984-3.6949 1.8625-7.7144.7584-11.5389l-5.8464-4.995c2.3647 4.1058 3.3165 8.7008 2.7448 13.2507-.5717 4.5499-2.6435 8.8676-5.9744 12.451ZM35.6251 19.0424c-.9933 3.8296-3.4056 7.2834-6.8788 9.8487-1.0144.7533-2.1085 1.4244-3.2683 2.0046 2.8282-.7102 5.4277-1.9659 7.5981-3.6702 2.1704-1.7042 3.8537-3.8116 4.9201-6.1596l-2.3711-2.0235Z"/><path fill="#8E8F99" d="m34.6948 18.4784-3.3759-2.8844c-.0645 3.2885-1.1587 6.5023-3.1689 9.3072-2.0101 2.805-4.8629 5.0988-8.2617 6.643h.0166a22.4294 22.4294 0 0 0 2.2662-.1156c3.1764-1.1077 5.9824-2.87 8.1677-5.1297 2.1852-2.2597 3.6818-4.9464 4.356-7.8205ZM16.2861 3.4457 12.2587 0C8.6584 1.1887 5.562 3.2784 3.3747 5.9955 1.1875 8.7127.0112 11.9308 0 15.2285c.0135 3.644 1.449 7.18 4.0793 10.0484 2.6303 2.8685 6.3052 4.9055 10.4429 5.7887 3.6938-3.8451 5.8564-8.5963 6.1736-13.5633.3172-4.967-1.2275-9.891-4.4097-14.0566ZM44 17.9478c-.0146-4.3233-2.0311-8.466-5.6092-11.5231-3.5781-3.057-8.4268-4.78-13.4869-4.7925-2.3382-.002-4.6566.3666-6.8374 1.0873l24.6582 21.0678C43.569 21.925 44.0015 19.945 44 17.9478Z"/></svg>