<svg xmlns="http://www.w3.org/2000/svg" width="94" height="45" fill="none"><path fill="#8E8F99" d="M47.5293 21.4433c-.444-.5909-.6564-1.2891-.606-1.992v-2.8881c0-.8853.2009-1.5581.6026-2.0184.4018-.4603 1.0918-.6894 2.0701-.6875.9193 0 1.5719.1959 1.9577.5876.4209.4998.6257 1.1111.5788 1.7276v.6787H50.488v-.6875a3.4973 3.4973 0 0 0-.0476-.6728c-.0237-.1523-.1065-.2932-.2349-.3996-.1689-.1147-.3816-.1703-.5959-.1557-.2253-.0145-.4487.0441-.6264.1645-.1433.1179-.2388.2724-.2724.4407a3.3415 3.3415 0 0 0-.0647.7139v3.5051c-.0259.3381.0466.6765.2111.9842.0818.1042.1954.1867.3282.2386a.9026.9026 0 0 0 .4242.0552c.2107.015.4197-.042.5822-.1586.134-.1148.2202-.2645.2452-.426a3.8553 3.8553 0 0 0 .051-.7022v-.711h1.6445v.6493c.0462.6426-.1536 1.2806-.5686 1.8157-.3779.4289-1.0214.6434-1.9679.6434-.9465 0-1.6615-.2291-2.0667-.7051ZM54.3763 21.4727c-.4153-.4495-.623-1.1047-.623-1.9714v-3.038c0-.8579.2077-1.5072.623-1.9479.4154-.4407 1.11-.66 2.0837-.6581.9669 0 1.6581.2194 2.0734.6581.4154.4407.6265 1.09.6265 1.9479v3.038c0 .8579-.2111 1.516-.6333 1.9684-.4222.4525-1.1099.6787-2.0666.6787-.9567 0-1.6649-.2291-2.0837-.6757Zm2.8497-.7287c.1488-.2815.2165-.59.1975-.899v-3.7195c.0191-.3031-.0475-.6056-.1941-.8814-.0834-.1064-.1998-.1903-.3358-.2422a.9068.9068 0 0 0-.4336-.0516.9195.9195 0 0 0-.4348.0522c-.1365.0519-.2535.1355-.3381.2416-.1497.275-.2176.578-.1974.8814v3.7371c-.0207.3092.0471.6179.1974.8991a1.027 1.027 0 0 0 .3469.2228 1.161 1.161 0 0 0 .4226.0789 1.161 1.161 0 0 0 .4226-.0789 1.0255 1.0255 0 0 0 .3468-.2228v-.0177ZM61.1378 13.946h1.7705l1.3312 5.6052 1.3619-5.6052h1.7228l.1736 8.0905h-1.2734l-.1361-5.6228-1.3143 5.6228h-1.0214l-1.3619-5.6434-.1259 5.6434h-1.287l.16-8.0905ZM69.4829 13.946h2.7577c1.5889 0 2.3833.7658 2.3833 2.2973 0 1.4669-.8364 2.1994-2.5092 2.1974h-.9397v3.5958h-1.7023l.0102-8.0905Zm2.356 3.4577c.1682.0184.339.0051.5007-.039a1.2264 1.2264 0 0 0 .4356-.2166c.1952-.2732.2813-.5941.2451-.9136a2.5302 2.5302 0 0 0-.0817-.7344.5958.5958 0 0 0-.1253-.222.7049.7049 0 0 0-.2152-.1629 1.7631 1.7631 0 0 0-.7592-.1292h-.6605v2.4177h.6605ZM77.0787 13.946h1.8283l1.876 8.0905h-1.5866l-.3711-1.8655h-1.6308l-.3813 1.8655h-1.6104l1.8759-8.0905Zm1.5628 5.2879-.6367-3.396-.6367 3.396h1.2734ZM82.2981 13.946h1.1916l2.2812 4.6152V13.946h1.4129v8.0905h-1.1337l-2.2948-4.8179v4.8179h-1.4606l.0034-8.0905ZM90.4932 18.9516l-1.8964-4.9943h1.5968l1.1576 3.2081 1.0861-3.2081H94l-1.8726 4.9943v3.0847h-1.6342v-3.0847ZM50.1579 25.5736v.4231h-1.3891v3.2875h-.5822v-3.2875h-1.396v-.4231h3.3673ZM54.5123 29.2844h-.4494a.1998.1998 0 0 1-.126-.0352.1934.1934 0 0 1-.0749-.0852l-.4017-.8813h-1.9271l-.4018.8813a.243.243 0 0 1-.0612.0999.2078.2078 0 0 1-.126.0352h-.4494l1.7023-3.7104h.5924l1.7228 3.6957Zm-2.8191-1.3778h1.6071l-.681-1.51a2.7033 2.7033 0 0 1-.126-.3496c-.0238.0705-.0442.1381-.0647.1969l-.0612.1557-.6742 1.507ZM57.4472 28.9202c.1066.0048.2134.0048.32 0a1.9257 1.9257 0 0 0 .2724-.0441 2.0993 2.0993 0 0 0 .2452-.0676c.0749-.0264.1498-.0587.2281-.0911v-.8344h-.681a.1423.1423 0 0 1-.0495-.0064.128.128 0 0 1-.0424-.023.0864.0864 0 0 1-.0259-.0304.0746.0746 0 0 1-.0081-.0372v-.285h1.321v1.4221a2.5709 2.5709 0 0 1-.3405.1763 2.509 2.509 0 0 1-.3779.1263 3.0537 3.0537 0 0 1-.4256.0764 5.1531 5.1531 0 0 1-.4971.0235 2.596 2.596 0 0 1-.858-.1381c-.2549-.0884-.4865-.2203-.6809-.3878-.1896-.1692-.3388-.3688-.4392-.5876a1.8544 1.8544 0 0 1-.1566-.7698 1.9229 1.9229 0 0 1 .1532-.7757c.0979-.2199.2474-.42.4392-.5876.1943-.167.426-.2979.6809-.3849a2.8586 2.8586 0 0 1 .9125-.1381 3.4149 3.4149 0 0 1 .4732.0323 2.334 2.334 0 0 1 .4052.094c.1191.0386.2332.0878.3405.1469.1043.058.2034.1228.2962.1939l-.1634.2292a.1426.1426 0 0 1-.0553.0509.1709.1709 0 0 1-.0775.0196.2224.2224 0 0 1-.1056-.0294 2.1031 2.1031 0 0 1-.1668-.0881 1.5103 1.5103 0 0 0-.2281-.0999 2.1372 2.1372 0 0 0-.3133-.0823 2.6253 2.6253 0 0 0-.4324-.0323 2.018 2.018 0 0 0-.6571.1028c-.1894.0656-.3602.1659-.5004.2939-.1411.1334-.2489.2904-.3167.4613a1.7335 1.7335 0 0 0 0 1.2369c.0745.1745.1905.3337.3405.4672.1396.1273.3091.2275.4971.2938.2165.0641.4459.0892.6741.0735ZM62.8744 28.8611h1.859v.4231h-2.4276v-3.7106h.5822l-.0136 3.2875ZM66.6672 29.2842h-.5822v-3.7106h.5822v3.7106ZM68.8325 25.5913c.0346.017.0648.04.0886.0676l2.4887 2.797a.884.884 0 0 1 0-.1322V25.559h.5073v3.7255h-.2928a.2758.2758 0 0 1-.1259-.0206.3308.3308 0 0 1-.092-.0705l-2.4853-2.7941V29.2845h-.4869v-3.7108h.303c.0329 0 .0653.006.0953.0176ZM76.2037 25.5736v.4084h-2.0632v1.2251h1.6717v.3937h-1.6717v1.2663h2.0632v.4083h-2.6624v-3.7018h2.6624ZM15.1952 2.6587l25.8518 6.334v22.1956l-25.8518-6.3311V2.6587ZM13.5371.7667v25.1687l29.1646 7.1478V7.9175L13.5371.7667Z"/><path fill="#8E8F99" d="M29.168 44.7667 0 37.6129v-25.166l29.168 7.1508v25.169Z"/><path fill="#8E8F99" d="m14.0205 2.3737 25.5147 6.2546-10.8507 9.3658-25.5181-6.2576 10.8541-9.3628ZM13.537.7667 0 12.4475l29.168 7.1506L42.7016 7.9174 13.537.7667ZM30.8091 43.3509l11.8925-10.2646-11.8925-2.9172v13.1818Z"/></svg>