<svg xmlns="http://www.w3.org/2000/svg" width="16" height="16" fill="none"><g fill="#F4F4FD" clip-path="url(#a)"><path d="M15.9843 4.704c-.0375-.8502-.175-1.4347-.3719-1.9411-.2032-.5376-.5157-1.019-.9252-1.419a3.938 3.938 0 0 0-1.4159-.922c-.5094-.197-1.0908-.3345-1.941-.372C10.4738.0093 10.2019 0 8.0296 0S5.5854.0093 4.7321.0468c-.8501.0374-1.4346.175-1.941.3719-.5376.2031-1.019.5157-1.419.9252a3.9392 3.9392 0 0 0-.922 1.416C.253 3.2692.1155 3.8505.078 4.7007c-.0406.8564-.05 1.1283-.05 3.3006s.0094 2.4442.0469 3.2976c.0374.8501.175 1.4346.372 1.941a3.9453 3.9453 0 0 0 .925 1.419 3.9367 3.9367 0 0 0 1.416.922c.5095.197 1.0908.3345 1.941.3719.8533.0377 1.1253.0469 3.2976.0469s2.4442-.0092 3.2975-.0469c.8501-.0374 1.4346-.1749 1.9409-.3719a4.0925 4.0925 0 0 0 2.3412-2.341c.1968-.5095.3344-1.0909.3719-1.941.0375-.8534.0469-1.1253.0469-3.2976s-.0032-2.4442-.0407-3.2975Zm-1.4408 6.5324c-.0345.7815-.1657 1.2034-.2751 1.4847a2.6543 2.6543 0 0 1-1.5191 1.5191c-.2813.1094-.7063.2407-1.4847.275-.8439.0376-1.097.0468-3.2318.0468s-2.391-.0092-3.232-.0468c-.7813-.0343-1.2033-.1656-1.4846-.275-.3469-.1282-.6626-.3314-.9189-.597a2.4877 2.4877 0 0 1-.597-.9189c-.1094-.2813-.2407-.7064-.275-1.4847-.0376-.8439-.0469-1.0971-.0469-3.232 0-2.1348.0093-2.391.047-3.2318.0342-.7814.1655-1.2033.2749-1.4846.1282-.347.3313-.6626.6002-.919a2.4836 2.4836 0 0 1 .9189-.597c.2813-.1093.7064-.2406 1.4846-.275.844-.0375 1.0972-.047 3.2319-.047 2.1379 0 2.391.0095 3.2319.047.7814.0344 1.2034.1657 1.4847.275.3468.1281.6626.3313.9189.597.2656.2594.4688.572.597.919.1094.2813.2406.7063.2751 1.4846.0375.844.0469 1.097.0469 3.2319 0 2.1348-.0094 2.3848-.0469 3.2287Z"/><path d="M8.0297 3.8912c-2.2691 0-4.1102 1.841-4.1102 4.1102 0 2.2693 1.841 4.1102 4.1102 4.1102 2.2692 0 4.1101-1.8409 4.1101-4.1102 0-2.2692-1.8409-4.1102-4.1101-4.1102Zm0 6.7764c-1.4721 0-2.6662-1.194-2.6662-2.6662s1.194-2.6662 2.6662-2.6662 2.6661 1.194 2.6661 2.6662-1.194 2.6662-2.6661 2.6662ZM13.262 3.7287c0 .5299-.4296.9596-.9596.9596-.5299 0-.9596-.4297-.9596-.9596 0-.53.4297-.9595.9596-.9595.53 0 .9596.4295.9596.9595Z"/></g><defs><clipPath id="a"><path fill="#fff" d="M0 0h16v16H0z"/></clipPath></defs></svg>