<svg xmlns="http://www.w3.org/2000/svg" width="16" height="16" fill="none"><g fill="#F4F4FD" clip-path="url(#a)"><path d="M15.9961 15.9999v-.0007h.004v-5.868c0-2.8707-.618-5.082-3.974-5.082-1.6133 0-2.696.8853-3.138 1.7247h-.0467V5.3172h-3.182v10.682h3.3134v-5.2893c0-1.3927.264-2.7394 1.9886-2.7394 1.6994 0 1.7247 1.5894 1.7247 2.8287v5.2007h3.31ZM.264 5.3179h3.3174v10.682H.264V5.3179ZM1.9214-.0001C.8607-.0001 0 .8605 0 1.9212s.8606 1.9393 1.9213 1.9393 1.9213-.8786 1.9213-1.9393C3.8421.8605 2.9814 0 1.9214 0Z"/></g><defs><clipPath id="a"><path fill="#fff" d="M0 0h16v16H0z"/></clipPath></defs></svg>