<svg width="0" height="0" class="hidden">
  <symbol xmlns="http://www.w3.org/2000/svg" fill="none" viewBox="0 0 64 64" id="antenna">
    <path fill="#2E2F42" d="M61.5463 44.1952 44.6599 27.1851l1.8741-9.231a4.2547 4.2547 0 0 0 1.5168.2912h.0128c2.3846.0282 4.3404-1.882 4.3687-4.2665.0283-2.3845-1.882-4.3404-4.2665-4.3687-2.3846-.0281-4.3404 1.882-4.3687 4.2666a4.317 4.317 0 0 0 .2495 1.4982l-9.92 1.2107L17.9452.32a1.0665 1.0665 0 0 0-.7531-.32c-.28.0015-.5481.113-.7466.3104l-3.0251 3.008c-.4164.4165-.4164 1.0917 0 1.5083l1.6277 1.6512c-6.306 11.5958-4.2578 25.9556 5.039 35.3258.0853.0816.1842.1476.2922.1952a6.1918 6.1918 0 0 0-.1045 1.0944v12.3734h-12.8c-2.944.0034-5.3299 2.3893-5.3333 5.3333v2.1333C2.1415 63.5224 2.619 64 3.208 64h49.0667c.5891 0 1.0667-.4776 1.0667-1.0667V60.8c-.0035-2.944-2.3893-5.3299-5.3333-5.3333h-12.8v-5.4838a30.0574 30.0574 0 0 0 6.097.64 29.6989 29.6989 0 0 0 14.08-3.5669l1.6363 1.6459c.1985.2025.4695.3177.7531.32.28-.0015.5481-.113.7466-.3104l3.0251-3.008c.4164-.4166.4164-1.0918 0-1.5083ZM46.5596 12.4661c.8354-.8309 2.1862-.8272 3.017.0082.8309.8353.8272 2.1861-.0082 3.0169a2.1333 2.1333 0 0 1-1.5049.6208h-.0064c-1.1781-.0061-2.1284-.9661-2.1223-2.1444a2.1337 2.1337 0 0 1 .629-1.5015h-.0042Zm-2.5109 7.0091-1.1968 5.8912-2.351-2.3648 3.5478-3.5264Zm-1.2117-1.8037-3.84 3.8176-2.9707-2.9867 6.8107-.8309ZM48.0082 57.6c1.7673 0 3.2 1.4327 3.2 3.2v1.0667H4.2748V60.8c0-1.7673 1.4327-3.2 3.2-3.2h40.5334Zm-14.9334-4.2667v2.1334H22.4081v-2.1334h10.6667ZM22.4081 51.2v-8.1067c0-2.5877 2.3926-4.6933 5.3334-4.6933 2.9408 0 5.3333 2.1056 5.3333 4.6933V51.2H22.4081Zm12.8001-3.392v-4.7147c0-3.7642-3.3494-6.8266-7.4667-6.8266a7.6 7.6 0 0 0-6.5622 3.5722c-8.1154-8.5476-9.9429-21.2904-4.5572-31.7742l37.2037 37.4169a27.6416 27.6416 0 0 1-18.6176 2.3264Zm22.5781-1.3675-1.5029-1.5114L17.1815 5.5915l-1.5094-1.5126 1.5094-1.504 15.8698 15.9595c.0075 0 .0118.0139.0193.0192l26.2293 26.3829-1.5136 1.504Z"></path>
    <path fill="#4D5AE5" d="M27.7511 40.5333h-.0096c-1.7673-.0027-3.2021 1.4279-3.2048 3.1952-.0027 1.7673 1.4279 3.2021 3.1952 3.2048h.0096c1.7673.0027 3.2021-1.4279 3.2048-3.1952.0026-1.7673-1.4279-3.2021-3.1952-3.2048Zm.7467 3.9563a1.0673 1.0673 0 0 1-.7563.3104c-.5891-.0031-1.0641-.4831-1.0611-1.0722a1.0677 1.0677 0 0 1 .3144-.7508 1.0673 1.0673 0 0 1 .7467-.3104c.5891.0031 1.0641.4831 1.0611 1.0722a1.0677 1.0677 0 0 1-.3144.7508h.0096Z"></path>
  </symbol>
  <symbol xmlns="http://www.w3.org/2000/svg" fill="none" viewBox="0 0 64 64" id="astronaut">
    <path fill="#4D5AE5" d="M63.9481 9.0481a1.068 1.068 0 0 0-.8608-.7254l-3.8208-.5557-1.7099-3.4625c-.3584-.7296-1.5541-.7296-1.9125 0L53.9342 7.767l-3.821.5559a1.0691 1.0691 0 0 0-.8618.7253c-.1248.3862-.0214.8107.2698 1.0934l2.766 2.6956-.6528 3.8059c-.0683.4.096.8043.4235 1.0433a1.0617 1.0617 0 0 0 1.1243.081l3.4176-1.7974 3.4177 1.7974a1.068 1.068 0 0 0 .4971.1226c.2208 0 .4417-.0682.6273-.2037a1.0652 1.0652 0 0 0 .4235-1.0433l-.6527-3.8059 2.7659-2.6956a1.0699 1.0699 0 0 0 .2695-1.0934Zm-4.9258 2.6539a1.0668 1.0668 0 0 0-.3062.9441l.3819 2.2282-2.001-1.0517a1.0638 1.0638 0 0 0-.4972-.1227c-.1706 0-.3402.0405-.4971.1227l-2.0011 1.0517.3818-2.2282a1.0677 1.0677 0 0 0-.3061-.9441l-1.6203-1.5786 2.2379-.3254a1.0663 1.0663 0 0 0 .8033-.5835l1.0005-2.0266 1.0005 2.0266c.1558.3146.4555.5334.8033.5835l2.2379.3254-1.6181 1.5786ZM52.267 41.0444h-2.1335v2.1334h2.1335v-2.1334ZM52.267 45.3112h-2.1335v2.1334h2.1335v-2.1334ZM54.4004 43.1778H52.267v2.1334h2.1334v-2.1334Z"></path>
    <path fill="#4D5AE5" d="M50.1337 43.1778h-2.1335v2.1334h2.1335v-2.1334ZM44.8001 52.778h-2.1334v2.1333h2.1334V52.778ZM44.8001 57.0446h-2.1334v2.1335h2.1334v-2.1335ZM46.9336 54.9113h-2.1334v2.1335h2.1334v-2.1335ZM42.6667 54.9113h-2.1334v2.1335h2.1334v-2.1335ZM32 48.5113h-2.1334v2.1334H32v-2.1334ZM32 52.778h-2.1334v2.1333H32V52.778ZM34.1334 50.6445H32v2.1334h2.1334v-2.1334ZM29.8666 50.6445h-2.1334v2.1334h2.1334v-2.1334ZM11.733 12.2439H9.5996v2.1334h2.1334v-2.1334ZM11.733 16.5108H9.5996v2.1334h2.1334v-2.1334Z"></path>
    <path fill="#4D5AE5" d="M13.8663 14.3774h-2.1334v2.1334h2.1334v-2.1334ZM9.5996 14.3774H7.4662v2.1334h2.1334v-2.1334Z"></path>
    <path fill="#2E2F42" d="M49.4295 28.3189c-.5749-.7755-1.4186-1.2746-2.3765-1.4091-.9622-.1365-1.9116.1162-2.6796.704l-2.5035 1.9189-.0011.0011-3.7954 2.8342-2.7157-1.0816c4.8427-2.1728 8.2273-7.0166 8.2273-12.6402 0-7.646-6.2454-13.8669-13.9223-13.8669s-13.9222 6.2209-13.9222 13.8669c0 2.7713.8287 5.3483 2.24 7.5168l-5.5276-.048h-.0096c-.0171 0-.0309.0085-.0469.0097a1.0422 1.0422 0 0 0-.3104.0618c-.0256.0097-.0522.015-.0767.0267-.0128.0053-.0256.0063-.0384.0127l-6.4662 3.1926c-.0011 0-.0021 0-.0021.001l-3.7869 1.821a.8201.8201 0 0 0-.1258.0704C.0805 32.3156-.4337 34.289.393 35.9018c.4405.8576 1.1904 1.4892 2.112 1.7782a3.6169 3.6169 0 0 0 1.0784.1653c.5793 0 1.1532-.1418 1.679-.4223l2.7755-1.4763 4.528-2.3382 2.7137-.016L4.3963 44.4237c-.001.0011-.0021.0011-.0033.0021l-2.6774 2.6667c-.6325.6294-.9802 1.4645-.9802 2.3553 0 .8896.3477 1.7269.9802 2.3574.6497.6464 1.504.9706 2.3584.9706.8556 0 1.7088-.3242 2.3606-.9706l2.6283-2.6177 3.4816-2.5995 1.8017 1.7941-3.5233 3.5083c-.001.0012-.0021.0012-.0033.0022l-2.6774 2.6666c-.6325.6294-.9802 1.4645-.9802 2.3553 0 .8896.3477 1.7269.9802 2.3574.6497.6464 1.5052.9707 2.3596.9707.8544 0 1.7099-.3243 2.3605-.9707l2.6784-2.6667 4.2848-4.2666c.0012-.0012.0012-.0022.0022-.0033l2.0192-2-.0075-.0075c.0128-.0128.0309-.0172.0438-.0309l10.3319-11.3164 6.942.9877c.0501.0075.1002.0107.1504.0107.1291 0 .2538-.0309.3744-.0768.0352-.0127.0661-.0299.0992-.0469.0384-.0192.0789-.0298.1153-.0543l6.4267-4.2667c.0235-.016.0362-.0417.0586-.0587.0256-.0202.0576-.0287.081-.0512l2.5429-2.3819c1.3232-1.2398 1.5055-3.2707.4239-4.7235ZM4.2608 35.5403c-.3466.1856-.7403.2229-1.1168.1035-.3734-.1163-.6762-.3713-.8534-.7158-.3221-.6272-.1355-1.391.4288-1.8037l2.6273-1.2641.6325 1.8486.2656.7765-1.984 1.055Zm6.9942-3.6554-3.0965 1.6-.511-1.4934-.3668-1.0731 4.0535-2.0012-.0792 2.9677ZM41.4539 18.644c0 1.8368-.4384 3.5692-1.1979 5.119l-8.3628-3.7984c-.0875-1.1467-.6826-2.1504-1.5765-2.7756l2.928-9.7206c4.7554 1.5126 8.2092 5.9489 8.2092 11.1756Zm-23.5779 0c0-6.4694 5.2886-11.7335 11.7889-11.7335.5057 0 1.0006.0426 1.4902.1045l-2.8641 9.5074c-.0383-.0011-.0746-.0118-.1141-.0118-2.0651 0-3.7452 1.6747-3.7452 3.7335 0 2.0586 1.6801 3.7334 3.7452 3.7334 1.3888 0 2.5888-.7669 3.2363-1.8892l7.7249 3.5095c-2.1494 2.8928-5.5895 4.7798-9.4733 4.7798-6.5002 0-11.7888-5.2641-11.7888-11.7336Zm11.9127 1.6001c0 .8821-.7233 1.6-1.6118 1.6-.8885 0-1.6118-.7179-1.6118-1.6 0-.8822.7233-1.6001 1.6118-1.6001.8885 0 1.6118.7179 1.6118 1.6001ZM4.9297 50.2925c-.4725.4683-1.2374.4673-1.7088.0011-.2272-.2272-.352-.5268-.352-.8458 0-.3179.1248-.6177.352-.8427l1.9242-1.9169 1.7024 1.695-1.9178 1.9093Zm6.4277 7.4669c-.4725.4682-1.2384.4694-1.7099.0011-.2273-.2272-.352-.5269-.352-.8459 0-.3179.1247-.6176.352-.8426l1.9254-1.9179.8054.8011.8981.8939-1.919 1.9103Zm6.9634-6.9377c-.0012.001-.0022.001-.0033.0021l-3.5297 3.52-.8054-.8011-.8981-.8939 3.5264-3.5104v-.001c.0012-.0011.0022-.0011.0033-.0021.08-.08.1301-.176.1792-.2709.0139-.0278.0405-.0513.0523-.08.0331-.0821.0384-.1706.0512-.2572.0064-.0491.0278-.0948.0278-.1451 0-.0715-.0256-.1407-.0405-.2112-.0128-.064-.0128-.1292-.0374-.1909-.0405-.1003-.1099-.1888-.1824-.2753-.0202-.0235-.0277-.0533-.0501-.0757h-.0011c-.0011-.001-.0011-.0033-.0021-.0043l-3.214-3.2c-.0341-.0341-.0778-.048-.1162-.0768-.0565-.0437-.1109-.0842-.1739-.1152-.0607-.0299-.1226-.048-.1866-.0651-.0683-.0193-.1344-.0342-.2059-.0395-.0651-.0043-.1259.0021-.1909.0096-.0715.0085-.1386.0181-.208.0405-.0672.0214-.1269.0544-.1887.0896-.0395.0224-.0843.0299-.1217.0576L8.4584 46.973l-1.8017-1.7942 4.798-4.7723 8.7212 8.5773-1.8551 1.8379Zm13.6376-14.0334c-.0309-.0042-.0598.0075-.0907.0054a1.0436 1.0436 0 0 0-.2304.0139c-.0607.0106-.1183.0223-.176.0426-.0682.0235-.1301.0555-.1931.0939a1.0278 1.0278 0 0 0-.1664.1226c-.0256.0224-.0565.0331-.08.0586l-9.3965 10.2914-8.6561-8.5132 5.6662-5.6364c.4171-.416.4192-1.0912.0032-1.5094-.2101-.2101-.4863-.3136-.7626-.3125v-.001l-4.4374.0267.0555-3.215 6.2081.0534c2.5301 2.5878 6.0587 4.2017 9.9627 4.2017.8747 0 1.7281-.0906 2.559-.2454.08.064.1588.1292.2592.1697l4.8193 1.92.305 1.5168.3563 1.7706-6.0053-.8544Zm8.0822.3563-.6261-3.1158 2.8928-2.1601.7574 1.0048 1.136 1.5083-4.1601 2.7628Zm7.5072-5.662-1.6757 1.5702-1.8624-2.4726 1.6629-1.2746c.3103-.2389.7019-.336 1.0859-.2859.3861.0544.7275.256.96.5685a1.4282 1.4282 0 0 1-.1707 1.8944Z"></path>
    <path fill="#2E2F42" d="m27.2041 37.0881-4.2859-4.2667c-.4149-.4149-1.0892-.4149-1.5052 0l-4.2848 4.2667a1.0717 1.0717 0 0 0-.3136.7562c0 .2838.112.5558.3136.7563l4.2848 4.2667c.208.2069.4812.3104.7532.3104.272 0 .545-.1035.752-.3104l4.2859-4.2667a1.0708 1.0708 0 0 0 .3146-.7563c0-.2837-.1131-.5557-.3146-.7562Zm-5.0379 3.5179-2.7735-2.7617 2.7735-2.7616 2.7744 2.7616-2.7744 2.7617ZM34.3285 10.1415l-.5153 2.0716c.1419.0352 3.4753.9035 3.4753 4.2977h2.1334c-.0001-4.0343-3.3313-5.9309-5.0934-6.3693ZM39.422 18.644h-2.1334v2.1335h2.1334V18.644Z"></path>
  </symbol>
  <symbol xmlns="http://www.w3.org/2000/svg" fill="none" viewBox="0 0 64 64" id="clock">
    <g clip-path="url(#a)">
      <path fill="#2E2F42" d="M62.5933 30.6025C62.5899 13.6978 48.8828-.0035 31.9775 0 15.0728.0034 1.3715 13.7109 1.375 30.6157c.003 13.3159 8.6138 25.1021 21.2988 29.1524a1.229 1.229 0 0 0 .3736.0571 1.351 1.351 0 0 0 .685-.1875c.27-.1597.4717-.4136.5664-.7129l7.73-24.5c2.1133-.0107 3.8174-1.7329 3.8062-3.8457-.0108-2.1133-1.7325-3.8174-3.8457-3.8066a3.7744 3.7744 0 0 0-1.6402.3828L20.1372 16.9419c-.5068-.4893-1.314-.4751-1.8032.0312-.4776.4947-.4776 1.2779 0 1.7725l10.2065 10.2183c-.7832 1.5986-.3354 3.5283 1.0728 4.6181L22.248 56.9277C7.6924 51.5659.2393 35.4199 5.601 20.8643 10.963 6.3086 27.109-1.1445 41.6647 4.2173 56.2202 9.579 63.6733 25.7256 58.3115 40.2808a28.087 28.087 0 0 1-14.9243 15.9467l-.7959-3.7485c-.1455-.689-.8227-1.1294-1.5117-.9834a1.2819 1.2819 0 0 0-.585.2964l-7.6738 6.8511c-.5264.4682-.5732 1.2744-.1045 1.8008.1524.1709.3477.2978.5664.3676l9.7974 3.127c.6704.2153 1.3887-.1533 1.604-.8242a1.2765 1.2765 0 0 0 .0337-.6553l-.7822-3.6782c11.3286-4.7759 18.684-15.8843 18.6577-28.1783Zm-30.6089-1.2753c.7041 0 1.2754.5712 1.2754 1.2753 0 .7046-.5713 1.2754-1.2754 1.2754-.7046 0-1.2754-.5708-1.2754-1.2754 0-.7041.5708-1.2753 1.2754-1.2753Zm4.2007 29.728 4.3681-3.8965 1.2056 5.6807-5.5737-1.7842Z"></path>
      <path fill="#4D5AE5" d="M30.709 6.3701V8.921c0 .7046.5708 1.2754 1.2754 1.2754.7041 0 1.2754-.5708 1.2754-1.2754V6.3701c0-.704-.5713-1.2754-1.2754-1.2754-.7046 0-1.2754.5713-1.2754 1.2754ZM7.752 29.3271c-.7046 0-1.2754.5713-1.2754 1.2754 0 .7046.5708 1.2754 1.2753 1.2754h2.5508c.7046 0 1.2754-.5708 1.2754-1.2754 0-.7041-.5708-1.2754-1.2754-1.2754H7.752ZM56.2162 31.8779c.7046 0 1.2754-.5708 1.2754-1.2754 0-.7041-.5708-1.2754-1.2754-1.2754h-2.5507c-.7041 0-1.2754.5713-1.2754 1.2754 0 .7046.5713 1.2754 1.2754 1.2754h2.5507Z"></path>
    </g>
    <defs>
      <clipPath id="a">
        <path fill="#fff" d="M0 0h64v64H0z"></path>
      </clipPath>
    </defs>
  </symbol>
  <symbol xmlns="http://www.w3.org/2000/svg" fill="none" viewBox="0 0 64 64" id="diagram">
    <g clip-path="url(#a)">
      <path fill="#4D5AE5" d="M29.8511 29.9292h2.1322v9.595h-2.1322v-9.595ZM38.3799 34.1936h2.1322v5.3306h-2.1322v-5.3306ZM21.3221 37.392h2.1323v2.1322h-2.1323V37.392ZM14.9255 36.3258h2.1323v3.1983h-2.1323v-3.1983Z"></path>
      <path fill="#2E2F42" d="M3.1983 56.5819h51.1732c1.7663 0 3.1984-1.432 3.1984-3.1983v-4.2644c0-1.7663-1.4321-3.1983-3.1984-3.1983h-1.0661V19.3343l6.0557-5.7366c1.4055.6928 3.1067.2722 4.0265-.9974.9204-1.2691.7913-3.0167-.305-4.137-1.0963-1.1202-2.8402-1.2873-4.1296-.3955-1.2889.8922-1.747 2.5835-1.0849 4.0041l-4.5627 4.3254v-2.4597c0-1.7663-1.432-3.1983-3.1983-3.1983H7.4628c-1.7663 0-3.1984 1.432-3.1984 3.1983v31.9833h-1.066C1.432 45.9209 0 47.3529 0 49.1192v4.2644c0 1.7663 1.432 3.1983 3.1983 3.1983ZM60.7682 9.6732c.5887 0 1.0661.4773 1.0661 1.0661 0 .5887-.4774 1.0661-1.0661 1.0661-.5888 0-1.0661-.4774-1.0661-1.0661 0-.5888.4773-1.0661 1.0661-1.0661ZM6.3967 13.9376c0-.5887.4773-1.0661 1.066-1.0661h42.6444c.5887 0 1.0661.4774 1.0661 1.0661v4.4773L49.041 20.441v-4.3712c0-.5887-.4774-1.0661-1.0661-1.0661h-38.38c-.5887 0-1.066.4774-1.066 1.0661v26.6527c0 .5888.4773 1.0661 1.066 1.0661h38.38c.5887 0 1.0661-.4773 1.0661-1.0661V23.3738l2.1322-2.0203v24.5674H6.3966V13.9376Zm9.5949 13.8594c-1.4424-.0041-2.709.9568-3.0926 2.3472-.3837 1.3904.2103 2.8652 1.4508 3.6013 1.24.736 2.8199.5512 3.8563-.4519l3.7059 1.8595a1.0659 1.0659 0 0 0 1.2727-.2452l7.8777-8.8626 7.7438 5.8027c.4154.3113.9954.278 1.3722-.0786l6.7304-6.3753v16.2623H10.6611V17.1359h36.2477v5.3207l-7.543 7.1431-7.8089-5.8542a1.0669 1.0669 0 0 0-1.4362.1442l-7.9859 8.9854-2.9855-1.493a3.0249 3.0249 0 0 0 .0407-.3868c0-1.7662-1.4321-3.1983-3.1984-3.1983Zm1.0661 3.1983c0 .5888-.4773 1.0662-1.0661 1.0662-.5887 0-1.0661-.4774-1.0661-1.0662 0-.5887.4774-1.0661 1.0661-1.0661.5888 0 1.0661.4774 1.0661 1.0661Zm6.3967 17.0578h10.6611v1.0661c0 .5887-.4774 1.0661-1.0661 1.0661h-8.5289c-.5888 0-1.0661-.4774-1.0661-1.0661v-1.0661ZM2.1322 49.1192c0-.5888.4774-1.0661 1.0661-1.0661h18.1239v1.0661c0 1.7663 1.432 3.1983 3.1983 3.1983h8.5289c1.7662 0 3.1983-1.432 3.1983-3.1983v-1.0661h18.1238c.5888 0 1.0661.4773 1.0661 1.0661v4.2644c0 .5888-.4773 1.0661-1.0661 1.0661H3.1983c-.5887 0-1.066-.4773-1.066-1.0661v-4.2644Z"></path>
    </g>
    <defs>
      <clipPath id="a">
        <path fill="#fff" d="M0 0h64v64H0z"></path>
      </clipPath>
    </defs>
  </symbol>
  <symbol xmlns="http://www.w3.org/2000/svg" fill="none" viewBox="0 0 16 16" id="facebook">
    <g clip-path="url(#a)">
      <path fill="#F4F4FD" d="M10.6647 2.6565h1.4607V.1125C11.8734.078 11.0067 0 9.9974 0c-2.106 0-3.5487 1.3246-3.5487 3.7593V6h-2.324v2.844h2.324v7.156H9.298V8.8445h2.23l.354-2.844H9.2974V4.0412c.0006-.822.222-1.3847 1.3673-1.3847Z"></path>
    </g>
    <defs>
      <clipPath id="a">
        <path fill="#fff" d="M0 0h16v16H0z"></path>
      </clipPath>
    </defs>
  </symbol>
  <symbol xmlns="http://www.w3.org/2000/svg" viewBox="0 0 40 52" id="group">
    <g>
      <path clip-rule="evenodd" d="m17.1136 2.9345h-.1366c-.2099-.0127-.4199-.0178-.6299-.0229h-.4553c-.3972 0-.802.0102-1.2042.0305a.6253.6253 0 0 0 -.091 0 28.2752 28.2752 0 0 0 -10.5161 2.6829l-.4326.2085v22.1412l1.0119-.3433c.888-.3052 1.834-.5798 2.813-.8341a34.3282 34.3282 0 0 1 8.0952-1.0756v2.909a24.4348 24.4348 0 0 0 -1.065.0306h-.0835a32.3609 32.3609 0 0 0 -6.2282.9561 31.6343 31.6343 0 0 0 -7.4197 2.8913v-28.3968a29.727 29.727 0 0 1 7.784-3.166 29.7931 29.7931 0 0 1 7.3362-.9459h.4275c.511.0127 1.0094.0356 1.4774.0712a21.0909 21.0909 0 0 1 3.6554.5823v2.8633a22.6227 22.6227 0 0 0 -3.5416-.534l-.0726-.0061c-.2468-.021-.4939-.0422-.7243-.0422zm5.0392 2.9269c.6349.0483 1.2927.0712 1.958.0712a31.4672 31.4672 0 0 0 7.7131-.9892 31.7767 31.7767 0 0 0 7.4172-2.8938v27.8906a29.815 29.815 0 0 1 -7.7865 3.1659 29.9427 29.9427 0 0 1 -7.3362.9435 22.4048 22.4048 0 0 1 -5.5654-.6561v-28.0712c.43.0992.8727.1907 1.323.267.7387.1246 1.5179.2161 2.2768.272zm14.1943.2161-1.0119.3408a44.5537 44.5537 0 0 1 -2.8131.8417 34.2628 34.2628 0 0 1 -8.4063 1.0782c-.6602 0-1.2673-.0178-1.8542-.056l-.807-.0534v22.7769l.6931.061c.6426.056 1.3054.0839 1.9732.0839a26.8836 26.8836 0 0 0 6.6203-.8569 27.7638 27.7638 0 0 0 5.1733-1.8589l.4326-.2085z" fill-rule="evenodd"></path>
      <path d="m2.7371 42.2124a1.4916 1.4916 0 0 0 -.5147-.3478 1.4858 1.4858 0 0 0 -.611-.1074 1.6726 1.6726 0 0 0 -.6501.1221 1.501 1.501 0 0 0 -.506.3331 1.4627 1.4627 0 0 0 -.3263.5086 1.6503 1.6503 0 0 0 -.1164.6281v3.794c-.009.2673.042.5333.1493.7781.0895.1944.2188.3677.3794.5086.1517.1277.3297.2197.5212.2696.1844.0518.375.0783.5666.0788a1.4195 1.4195 0 0 0 .6122-.1322 1.5987 1.5987 0 0 0 .506-.351 1.6479 1.6479 0 0 0 .3314-.5086 1.5323 1.5323 0 0 0 .1214-.6052v-.4246h-.9917v.3382a.8813.8813 0 0 1 -.0582.3382.6085.6085 0 0 1 -.1442.2136.6054.6054 0 0 1 -.2074.1093.6973.6973 0 0 1 -.2074.0356.5029.5029 0 0 1 -.26-.0388.5062.5062 0 0 1 -.2055-.1646.8987.8987 0 0 1 -.1315-.5086v-3.5372a1.2078 1.2078 0 0 1 .1214-.567.507.507 0 0 1 .2102-.1845.5029.5029 0 0 1 .2755-.0444.527.527 0 0 1 .4427.2136.8065.8065 0 0 1 .1644.5086v.328h.9816v-.3865a1.7881 1.7881 0 0 0 -.1214-.6637 1.562 1.562 0 0 0 -.3314-.534zm5.8919-.0433a1.7652 1.7652 0 0 0 -1.1283-.417 1.734 1.734 0 0 0 -.592.1068 1.607 1.607 0 0 0 -.5236.3102 1.559 1.559 0 0 0 -.3846.5315 1.7702 1.7702 0 0 0 -.1442.7349v3.6389c-.0068.256.0424.5103.1442.7451.0898.1956.221.3692.3845.5085.1517.1408.3297.2497.5237.3205.1897.0698.39.1059.592.1068a1.7142 1.7142 0 0 0 .592-.1068 1.6567 1.6567 0 0 0 .5362-.3205 1.5532 1.5532 0 0 0 .3744-.5085 1.7552 1.7552 0 0 0 .1442-.7451v-3.6389a1.7702 1.7702 0 0 0 -.1442-.7349 1.6432 1.6432 0 0 0 -.3744-.5315zm-.463 4.9053a.654.654 0 0 1 -.1973.5264.7265.7265 0 0 1 -.4668.17.7265.7265 0 0 1 -.4667-.17.652.652 0 0 1 -.1973-.5264v-3.6389a.654.654 0 0 1 .1973-.5264.7265.7265 0 0 1 .4667-.17.7265.7265 0 0 1 .4668.17.654.654 0 0 1 .1973.5264zm8.2013 1.625v-6.8887h-.9537l-1.2522 3.6465h-.0177l-1.2624-3.6465h-.9436v6.8887h.9841v-4.1907h.0177l.9638 2.9625h.4908l.9714-2.9625h.0177v4.1907zm5.5908-6.4057a1.366 1.366 0 0 0 -.5566-.3764 2.1838 2.1838 0 0 0 -.7134-.1068h-1.4621v6.8888h.9815v-2.6904h.5059c.3063.0139.611-.0509.8854-.1882a1.4301 1.4301 0 0 0 .5389-.5264 1.649 1.649 0 0 0 .2251-.6001 4.8993 4.8993 0 0 0 .0531-.7832 3.923 3.923 0 0 0 -.0961-.9841 1.4664 1.4664 0 0 0 -.3617-.6332zm-.506 2.1004a.8667.8667 0 0 1 -.0911.3586.5522.5522 0 0 1 -.2529.2415 1.006 1.006 0 0 1 -.463.0865h-.4477v-2.342h.5059a.9422.9422 0 0 1 .4427.0864.5562.5562 0 0 1 .2302.2543c.0537.121.0829.2516.086.384v.4577c0 .1602.0101.3255 0 .473zm5.1556-2.5834h-.8045l-1.5178 6.8887h.9815l.2884-1.48h1.3382l.2884 1.48h.9816zm-.9057 4.4704.4832-2.4971h.0177l.4807 2.4971zm7.2477-.3204h-.0177l-1.4824-4.15h-.9436v6.8887h.9815v-4.1424h.0203l1.5001 4.1424h.9233v-6.8887h-.9815zm5.9979-4.15-.7893 2.7387h-.0202l-.7893-2.7387h-1.0397l1.3483 3.9771v2.9116h.9816v-2.9116l1.3483-3.9771zm-38.9476 8.8338h.473v1.3274h.3213v-1.3274h.4706v-.2721h-1.2649zm3.9767-.2721-.6198 1.5995h.3415l.1316-.3636h.6375l.1366.3636h.349l-.6349-1.5995zm-.0506.9663.2176-.5925.2175.5925h-.435zm3.9819.0434h.3693v.206a.6127.6127 0 0 1 -.3795.1348.4037.4037 0 0 1 -.339-.1526.6688.6688 0 0 1 -.1189-.417c0-.356.1543-.534.4604-.534a.3375.3375 0 0 1 .2277.0598.3406.3406 0 0 1 .134.1944l.3163-.061c-.0683-.3128-.2934-.4704-.678-.4704a.8044.8044 0 0 0 -.559.206.7802.7802 0 0 0 -.1827.2821.7843.7843 0 0 0 -.0475.3332.8727.8727 0 0 0 .2049.6002.7732.7732 0 0 0 .6071.2339.9606.9606 0 0 0 .678-.2543v-.6306h-.6932v.2695zm4.0146-1.0097h-.3238v1.5995h1.1206v-.2721h-.7968zm3.3949 0h-.3238v1.5995h.3238zm3.319 1.0681-.6552-1.0681h-.3137v1.5995h.301v-1.0451l.6426 1.0451h.3213v-1.5995h-.296zm3.0003-.173h.7969v-.2721h-.7969v-.3509h.8576v-.2721h-1.1814v1.5995h1.2143v-.2721h-.8905zm7.2754-.2644h-.6299v-.6307h-.3212v1.5995h.3212v-.6993h.6299v.6993h.3213v-1.5995h-.3213zm3.018.2644h.7994v-.2721h-.7994v-.3509h.8601v-.2721h-1.1814v1.5995h1.2117v-.2721h-.8904zm4.0931.0001c.2782-.0432.4199-.1907.4199-.445a.3828.3828 0 0 0 -.1569-.356.9038.9038 0 0 0 -.468-.0941h-.6779v1.5995h.3213v-.6688h.0632a.431.431 0 0 1 .1998.0356.335.335 0 0 1 .1139.117l.3491.5086h.3845l-.1948-.3128a1.1151 1.1151 0 0 0 -.3541-.384zm-.3239-.2212h-.2377v-.4018h.2529a.8399.8399 0 0 1 .3264.0381.2093.2093 0 0 1 -.0152.3255.9127.9127 0 0 1 -.3264.0382zm3.4102.2211h.7968v-.2721h-.7968v-.3509h.8601v-.2721h-1.1839v1.5995h1.2142v-.2721h-.8904z"></path>
    </g>
  </symbol>
  <symbol xmlns="http://www.w3.org/2000/svg" viewBox="0 0 41 47" id="group0">
    <path  fill-rule="evenodd" d="m6 0 7.0078 6.6764L0 6.6687v32.3922h34V26.6758l7 6.669V0H6Zm27.6924 25.8922L13.8226 6.962h19.8698v18.9302Zm-6.1693 8.4305H5.3801V12.5373h1.5652v20.3102h20.5778v1.4752ZM9.7959 45.0611l-.8252-1.6968h-.6812l1.1963 2.2461v1.3086h.6177v-1.3086l1.1963-2.2461h-.6787l-.8252 1.6968Zm3.042-1.6968h.1465l1.3427 3.5547h-.6445l-.2876-.8325h-1.3761l-.287.8325h-.6421l1.3379-3.5547h.4102Zm-.6515 2.2364h1.0407l-.5209-1.508-.5198 1.508Zm4.2957-.589a9.5487 9.5487 0 0 1-.0773-.0995c-.0912-.1205-.162-.2368-.2124-.3491a.8596.8596 0 0 1-.0757-.3516c0-.1855.0382-.345.1147-.4785s.1848-.236.3248-.3076c.1399-.0733.3035-.1099.4907-.1099.1806 0 .3361.0366.4663.1099.1318.0716.2327.1668.3027.2856a.7426.7426 0 0 1 .1074.3906c0 .1123-.0203.2149-.061.3077a.8962.8962 0 0 1-.1685.2539 1.7286 1.7286 0 0 1-.249.2173l-.2469.1797.7039.8307a1.407 1.407 0 0 0 .063-.1437c.0603-.1563.0904-.3296.0904-.5201h.5078c0 .1726-.0171.3361-.0513.4908a1.5226 1.5226 0 0 1-.1587.4296 1.2677 1.2677 0 0 1-.1008.1569l.5207.6146h-.6811l-.2066-.243a1.384 1.384 0 0 1-.3647.1991c-.1725.0618-.3564.0928-.5517.0928-.2361 0-.4403-.0432-.6128-.1294-.1726-.0863-.306-.2051-.4004-.3565-.0928-.1514-.1392-.3247-.1392-.52 0-.1449.0301-.2718.0903-.3809.0603-.1106.1425-.2132.2466-.3076a3.5255 3.5255 0 0 1 .3288-.2618Zm.2917.3572-.0736.0535c-.0863.07-.1506.1376-.1929.2027-.0407.0635-.0675.1221-.0805.1758a.607.607 0 0 0-.0196.1416c0 .1041.022.1985.0659.2832a.5146.5146 0 0 0 .1978.2026c.0879.0488.1945.0732.3198.0732a.9078.9078 0 0 0 .3931-.0903c.0636-.031.124-.0683.181-.112l-.791-.9303Zm.1405-.6493.218-.1468c.1026-.0683.1758-.1351.2198-.2002.0439-.0667.0659-.1497.0659-.249 0-.0846-.0326-.1627-.0977-.2344-.0651-.0716-.1571-.1074-.2759-.1074-.083 0-.153.0195-.2099.0586a.355.355 0 0 0-.1294.1514c-.0277.0618-.0415.131-.0415.2075 0 .0732.0187.1489.0561.227.0375.0765.0887.1571.1538.2417.0133.017.0269.0341.0408.0516Zm6.219 1.0422h-.6104c-.0179.1546-.0553.2856-.1123.3931-.0553.1058-.1375.1863-.2465.2417-.1075.0553-.2482.083-.4224.083-.1432 0-.2661-.0285-.3687-.0855-.1025-.0569-.1871-.1375-.2539-.2417-.0651-.1041-.1139-.2287-.1464-.3735-.031-.1465-.0464-.3093-.0464-.4883v-.3003c0-.1888.0171-.3564.0512-.5029.0358-.1481.0887-.2726.1587-.3736.07-.1009.1571-.1774.2613-.2294.1041-.0521.2262-.0782.3662-.0782.1709 0 .3092.0293.415.0879a.554.554 0 0 1 .2393.249c.0553.1091.0911.2401.1074.3931h.6103c-.0244-.2376-.0911-.4484-.2002-.6323-.1074-.1839-.2587-.328-.4541-.4321-.1953-.1042-.4345-.1563-.7177-.1563-.223 0-.424.0391-.6031.1172a1.2656 1.2656 0 0 0-.4565.3394c-.127.1464-.2246.323-.293.5297-.0667.2067-.1001.4379-.1001.6934v.2954c0 .2555.0326.4867.0977.6934.0667.2067.1628.3833.2881.5298.1253.1448.2759.2571.4516.3369.1758.0781.3736.1172.5933.1172.2865 0 .5298-.0521.73-.1563.2002-.1042.3556-.2466.4663-.4272.1107-.1823.1758-.3899.1953-.6226Zm3.3911-.5225v-.1953c0-.2685-.0358-.5086-.1074-.7202-.07-.2132-.1701-.3947-.3003-.5444a1.2766 1.2766 0 0 0-.4663-.3443c-.1807-.0797-.3809-.1196-.6006-.1196-.2181 0-.4175.0399-.5981.1196a1.3038 1.3038 0 0 0-.4663.3443c-.1303.1497-.2312.3312-.3028.5444-.0716.2116-.1074.4517-.1074.7202v.1953c0 .2686.0358.5095.1074.7227.0733.2132.1758.3947.3076.5444.1319.1498.2873.2645.4663.3443.1807.0781.3801.1172.5982.1172.2197 0 .4199-.0391.6006-.1172a1.291 1.291 0 0 0 .4638-.3443c.1302-.1497.2303-.3312.3003-.5444s.105-.4541.105-.7227Zm-.6128-.2002v.2002c0 .1986-.0195.3744-.0586.5274-.0374.153-.0927.2824-.166.3882-.0732.1041-.1627.1831-.2685.2368-.1058.0521-.2271.0781-.3638.0781-.1351 0-.2555-.026-.3613-.0781-.1058-.0537-.197-.1327-.2735-.2368-.0748-.1058-.1318-.2352-.1709-.3882-.039-.153-.0586-.3288-.0586-.5274v-.2002c0-.1985.0196-.3735.0586-.5249.0391-.153.0952-.2807.1685-.3833.0748-.1041.1652-.1823.271-.2343.1058-.0537.2262-.0806.3613-.0806s.2564.0269.3638.0806c.1074.052.1977.1302.271.2343.0748.1026.131.2303.1684.3833.0391.1514.0586.3264.0586.5249Z" clip-rule="evenodd"></path>
  </symbol>
  <symbol xmlns="http://www.w3.org/2000/svg" viewBox="0 0 44 41" id="group1">
    <path d="M6.8098 40.2233a.1387.1387 0 0 1 .0467.0091.1231.1231 0 0 1 .0389.0239l.2208.2076c-.1714.168-.3833.3023-.621.3939a2.4556 2.4556 0 0 1-.8806.1415 2.3807 2.3807 0 0 1-.8281-.1321c-.2368-.0846-.4496-.2117-.6239-.3727-.1778-.167-.3149-.3626-.403-.5755a1.8897 1.8897 0 0 1-.1407-.7383 1.7653 1.7653 0 0 1 .1518-.7407c.0964-.2142.2419-.4099.4278-.5755.1885-.1625.414-.2901.6625-.3751.2719-.09.5614-.1349.853-.1321a2.3335 2.3335 0 0 1 .7922.1203 2.148 2.148 0 0 1 .5935.3326l-.185.2217a.179.179 0 0 1-.047.0401.128.128 0 0 1-.0744.0166.1825.1825 0 0 1-.08-.0236l-.0995-.059-.138-.0755a1.599 1.599 0 0 0-.185-.0731 1.965 1.965 0 0 0-.2511-.059 1.97 1.97 0 0 0-.3285-.0236 1.813 1.813 0 0 0-.6128.0991c-.1814.0626-.345.1575-.4803.2783-.1376.1285-.2437.2793-.312.4435a1.4704 1.4704 0 0 0-.113.585c-.0034.2022.0349.4034.113.5944.0674.1627.1715.3126.3065.4411.1264.1198.2831.2133.4582.2736.1802.0638.3736.0959.5686.0944a2.4587 2.4587 0 0 0 .3368-.0189 1.347 1.347 0 0 0 .5107-.1581 1.6694 1.6694 0 0 0 .218-.1462.1745.1745 0 0 1 .105-.0377ZM13.1861 39.1803a1.775 1.775 0 0 1-.149.7335c-.09.2128-.2317.4069-.4158.5696-.1842.1626-.4065.29-.6525.3739a2.7315 2.7315 0 0 1-1.6782 0c-.2444-.0852-.4653-.2129-.6487-.3751-.184-.1655-.3268-.3613-.4196-.5755-.1988-.475-.1988-.9943 0-1.4694.0942-.2142.2367-.4106.4196-.5778.185-.1571.4057-.2799.6487-.3609a2.6852 2.6852 0 0 1 1.6782 0c.2452.0851.4671.2128.6515.375.1817.164.3234.3572.4168.5684.1022.2362.1528.4865.149.7383Zm-.5796 0a1.5368 1.5368 0 0 0-.1049-.5897c-.0619-.1628-.1624-.3129-.2954-.441-.1294-.1212-.2888-.2163-.4665-.2783a1.9714 1.9714 0 0 0-1.22 0c-.1778.062-.3371.1571-.4665.2783-.1348.1273-.2364.2776-.2981.441a1.703 1.703 0 0 0 0 1.1793c.0623.1632.1638.3134.2981.4411.1296.1205.2889.2147.4665.276a2.0222 2.0222 0 0 0 1.22 0c.1776-.0613.3369-.1555.4665-.276.1324-.1284.2329-.2785.2954-.4411.0741-.19.1095-.3894.1049-.5896ZM17.5365 39.7987l.0579.1321c.0221-.0472.0414-.0896.0635-.1321a1.2115 1.2115 0 0 1 .0718-.1297l1.4105-2.1909c.0276-.0377.0525-.0613.0801-.0684a.3884.3884 0 0 1 .1159-.0118h.4168v3.5635h-.4941v-2.731a.9288.9288 0 0 1 0-.1226l-1.4188 2.2215a.2031.2031 0 0 1-.0831.0811.252.252 0 0 1-.1212.0298h-.08a.2495.2495 0 0 1-.1215-.0294.2008.2008 0 0 1-.0828-.0815l-1.4602-2.2356v2.8606h-.4775v-3.5564h.4168a.3888.3888 0 0 1 .1159.0118.155.155 0 0 1 .0773.0684l1.4409 2.1933a.7526.7526 0 0 1 .0718.1273ZM22.8447 39.6217v1.3347h-.5521v-3.5586h1.2311a2.6754 2.6754 0 0 1 .6873.0778c.1787.0433.3444.1189.4859.2217.1226.0964.2171.2159.276.349.0652.1452.097.2997.0938.4552a1.005 1.005 0 0 1-.1021.4551c-.0663.1366-.1683.2584-.2981.3561-.1416.1071-.3081.1875-.4886.2359a2.373 2.373 0 0 1-.6652.0825l-.668-.0094Zm0-.3821h.668a1.5709 1.5709 0 0 0 .4278-.0542.9408.9408 0 0 0 .3092-.1533.6343.6343 0 0 0 .1877-.2358.673.673 0 0 0 .0662-.2995.5919.5919 0 0 0-.0553-.2899.6873.6873 0 0 0-.1931-.2431c-.2109-.1407-.4758-.2088-.7425-.191h-.668v1.4668ZM30.2645 40.9613h-.4362a.21.21 0 0 1-.1214-.0331.2242.2242 0 0 1-.0718-.0825l-.3754-.8609h-1.8853l-.3892.8609a.1962.1962 0 0 1-.069.0802.2099.2099 0 0 1-.1242.0354h-.4362l1.6562-3.5638h.5742l1.6783 3.5638Zm-2.7328-1.3232h1.5569l-.657-1.4505a2.3318 2.3318 0 0 1-.1242-.3349l-.0635.1863a1.659 1.659 0 0 1-.0607.1509l-.6515 1.4482ZM32.6495 37.414a.2344.2344 0 0 1 .0828.0637l2.4153 2.6864v-2.7666h.4941v3.5638h-.276a.273.273 0 0 1-.1132-.0212.3003.3003 0 0 1-.0883-.0661l-2.4125-2.684a.9645.9645 0 0 1 0 .1226v2.6487h-.4941v-3.5638h.2926a.2685.2685 0 0 1 .0993.0165ZM39.7104 39.5438v1.4151h-.5521v-1.4151l-1.5265-2.1463h.4941a.2014.2014 0 0 1 .1187.0307.3128.3128 0 0 1 .0746.0802l.9551 1.3844a2.142 2.142 0 0 1 .0993.1651c.0276.0519.0497.1014.069.151l.0718-.1533a1.2272 1.2272 0 0 1 .0939-.1628l.9412-1.3939a.376.376 0 0 1 .0718-.0754.187.187 0 0 1 .1187-.0354h.4996l-1.5292 2.1557ZM17.2632 31.417c.2401.0259.483.0472.7287.066 3.7246-1.4235 6.8754-3.7535 9.0587-6.6986 2.1832-2.9451 3.3021-6.3747 3.2166-9.8601l-4.1046-3.5071c.8346 3.7109.4442 7.547-1.1275 11.0791-1.5717 3.5321-4.2627 6.6208-7.7719 8.9207Z"></path>
    <path d="m15.7975 31.2539.1104.0189c3.7499-2.2917 6.6089-5.4919 8.2072-9.1867 1.5984-3.6949 1.8625-7.7144.7584-11.5389l-5.8464-4.995c2.3647 4.1058 3.3165 8.7008 2.7448 13.2507-.5717 4.5499-2.6435 8.8676-5.9744 12.451ZM35.6251 19.0424c-.9933 3.8296-3.4056 7.2834-6.8788 9.8487-1.0144.7533-2.1085 1.4244-3.2683 2.0046 2.8282-.7102 5.4277-1.9659 7.5981-3.6702 2.1704-1.7042 3.8537-3.8116 4.9201-6.1596l-2.3711-2.0235Z"></path>
    <path d="m34.6948 18.4784-3.3759-2.8844c-.0645 3.2885-1.1587 6.5023-3.1689 9.3072-2.0101 2.805-4.8629 5.0988-8.2617 6.643h.0166a22.4294 22.4294 0 0 0 2.2662-.1156c3.1764-1.1077 5.9824-2.87 8.1677-5.1297 2.1852-2.2597 3.6818-4.9464 4.356-7.8205ZM16.2861 3.4457 12.2587 0C8.6584 1.1887 5.562 3.2784 3.3747 5.9955 1.1875 8.7127.0112 11.9308 0 15.2285c.0135 3.644 1.449 7.18 4.0793 10.0484 2.6303 2.8685 6.3052 4.9055 10.4429 5.7887 3.6938-3.8451 5.8564-8.5963 6.1736-13.5633.3172-4.967-1.2275-9.891-4.4097-14.0566ZM44 17.9478c-.0146-4.3233-2.0311-8.466-5.6092-11.5231-3.5781-3.057-8.4268-4.78-13.4869-4.7925-2.3382-.002-4.6566.3666-6.8374 1.0873l24.6582 21.0678C43.569 21.925 44.0015 19.945 44 17.9478Z"></path>
  </symbol>
  <symbol xmlns="http://www.w3.org/2000/svg" viewBox="0 0 84 41" id="group2">
    <path  d="M13.0782 12.5179h-.0029c-2.3856 0-4.3196 1.7437-4.3196 3.8945v.0026c0 2.1508 1.934 3.8944 4.3196 3.8944h.0029c2.3856 0 4.3196-1.7436 4.3196-3.8944v-.0026c0-2.1508-1.934-3.8945-4.3196-3.8945ZM44.9614 11.273c-.0067-2.9875-1.3258-5.8509-3.6685-7.9636C38.9502 1.1967 35.7746.0068 32.4611 0c-3.3145.0054-6.4915 1.1948-8.8354 3.3076-2.344 2.1128-3.6638 4.977-3.6706 7.9654v16.4742s25.0035-2.5108 25.0063-16.4717v-.0025ZM0 33.1543c.006 2.0787.9243 4.0708 2.5543 5.5409C4.1843 40.1653 6.3934 40.9939 8.699 41c2.305-.0061 4.5137-.8343 6.1436-2.3039 1.6299-1.4696 2.5486-3.461 2.5554-5.5392V21.6938S0 23.4422 0 33.1543Zm8.699 2.0539c-.4506 0-.891-.1205-1.2656-.3462-.3746-.2256-.6666-.5464-.839-.9217-.1724-.3753-.2175-.7883-.1296-1.1867.0879-.3984.3048-.7643.6234-1.0516.3186-.2872.7245-.4828 1.1664-.5621.4419-.0792.8999-.0385 1.3161.1169.4163.1555.772.4187 1.0223.7565.2503.3377.3839.7348.3839 1.141a1.8778 1.8778 0 0 1-.1709.7884c-.114.25-.2816.4774-.4932.6689-.2117.1915-.4632.3435-.7401.4472a2.4952 2.4952 0 0 1-.8737.1571v-.0077ZM24.6089 31.515v4.2656H23.73V31.515h.8789Zm1.6992 1.8223v.6855h-1.9394v-.6855h1.9394Zm.2051-1.8223v.6885h-2.1445v-.6885h2.1445Zm4.0137 2.0332v.2022c0 .3242-.044.6152-.1319.873-.0879.2578-.2119.4776-.3721.6592a1.612 1.612 0 0 1-.5742.4131c-.2207.0957-.4658.1435-.7353.1435-.2676 0-.5127-.0478-.7354-.1435a1.6478 1.6478 0 0 1-.5742-.4131c-.1621-.1816-.2881-.4014-.3779-.6592-.0879-.2578-.1319-.5488-.1319-.873v-.2022c0-.3262.044-.6172.1319-.873.0879-.2578.2119-.4776.372-.6592a1.633 1.633 0 0 1 .5743-.416c.2226-.0957.4677-.1436.7353-.1436.2696 0 .5147.0479.7354.1436.2226.0957.414.2344.5742.416.1621.1816.2871.4014.375.6592.0898.2558.1348.5468.1348.873Zm-.8877.2022v-.208c0-.2266-.0205-.4258-.0616-.5977-.041-.1719-.1015-.3164-.1816-.4336-.0801-.1172-.1777-.2051-.293-.2637-.1152-.0605-.247-.0908-.3955-.0908-.1484 0-.2803.0303-.3955.0908-.1133.0586-.2099.1465-.29.2637-.0782.1172-.1377.2617-.1787.4336-.0411.1719-.0616.3711-.0616.5977v.208c0 .2246.0205.4238.0616.5976.041.1719.1015.3174.1816.4365.0801.1172.1777.2061.293.2666.1152.0606.247.0909.3955.0909.1484 0 .2803-.0303.3955-.0909.1152-.0605.2119-.1494.29-.2666.0782-.1191.1377-.2646.1787-.4365.0411-.1738.0616-.373.0616-.5976Zm3.7412.914c0-.0761-.0117-.1445-.0352-.205-.0215-.0625-.0625-.1192-.123-.17-.0606-.0527-.1455-.1045-.2549-.1552-.1094-.0508-.251-.1036-.4248-.1582a5.3767 5.3767 0 0 1-.5508-.211c-.1719-.0781-.3242-.1689-.457-.2724-.1309-.1055-.2344-.2276-.3106-.3663-.0742-.1386-.1113-.2998-.1113-.4834 0-.1777.0391-.3388.1172-.4834.0781-.1464.1875-.2714.3281-.375.1406-.1054.3066-.1865.4981-.2431.1933-.0567.4052-.085.6357-.085.3144 0 .5889.0567.8232.1699.2344.1133.4161.2686.545.4659.1308.1972.1962.4228.1962.6767h-.873c0-.125-.0264-.2344-.0791-.3281-.0508-.0957-.1289-.1709-.2344-.2256-.1035-.0547-.2344-.082-.3926-.082-.1523 0-.2793.0234-.3808.0703-.1016.0449-.1777.1064-.2285.1846-.0508.0761-.0762.1621-.0762.2578 0 .0722.0176.1377.0527.1963.0371.0586.0918.1132.1641.164.0723.0508.1611.0987.2666.1436.1055.0449.2275.0888.3662.1318.2324.0703.4365.1494.6123.2373.1777.0879.3262.1865.4453.2959.1192.1094.209.2334.2696.3721.0605.1387.0908.2959.0908.4717 0 .1855-.0362.3515-.1084.498-.0723.1465-.1768.2705-.3135.3721-.1367.1015-.2998.1787-.4893.2314-.1894.0528-.4013.0791-.6357.0791a2.4114 2.4114 0 0 1-.624-.082c-.2051-.0566-.3916-.1416-.5596-.2549a1.2846 1.2846 0 0 1-.3984-.4336c-.0996-.1758-.1494-.3838-.1494-.624h.8818c0 .1328.0205.2451.0615.3369.041.0918.0986.166.1729.2227.0761.0566.166.0976.2695.123.1055.0254.2207.0381.3457.0381.1523 0 .2773-.0215.375-.0644.0996-.043.1729-.1026.2197-.1788.0489-.0761.0733-.1621.0733-.2578Zm3.3838-3.1494v4.2656h-.876V31.515h.876Zm1.3125 0v.6885h-3.4805v-.6885h3.4805Zm3.3632 3.5801v.6855h-2.2705v-.6855h2.2705Zm-1.9834-3.5801v4.2656h-.8789V31.515h.8789Zm1.6875 1.7373v.668h-1.9746v-.668h1.9746Zm.293-1.7373v.6885h-2.2676v-.6885h2.2676Zm.5156 0h1.5909c.3261 0 .6064.0488.8408.1465.2363.0977.4179.2422.5449.4336.127.1914.1904.4268.1904.706 0 .2286-.039.4249-.1172.5889a1.1007 1.1007 0 0 1-.3252.4072c-.1386.1075-.3017.1934-.4892.2579l-.2783.1464h-1.3828l-.0059-.6855h1.0283c.1543 0 .2822-.0274.3838-.082.1016-.0547.1777-.1309.2285-.2286.0528-.0976.0791-.2109.0791-.3398 0-.1367-.0254-.2549-.0761-.3545-.0508-.0996-.128-.1758-.2315-.2285-.1035-.0527-.2334-.0791-.3896-.0791h-.712v3.5771h-.8789V31.515Zm2.3848 4.2656-.9727-1.9013.9288-.0059.9843 1.8662v.041h-.9404Zm4.6143-1.5205h-1.087v-.6855h1.087c.1679 0 .3046-.0274.4101-.082.1055-.0567.1826-.1348.2315-.2344.0488-.0996.0732-.2119.0732-.3369 0-.127-.0244-.2452-.0732-.3545-.0489-.1094-.126-.1973-.2315-.2637-.1055-.0664-.2422-.0996-.4101-.0996h-.7823v3.5771h-.8789V31.515h1.6612c.3339 0 .6201.0606.8584.1817.2402.1191.4238.2841.5507.4951.127.2109.1905.4521.1905.7236 0 .2754-.0635.5137-.1905.7148-.1269.2012-.3105.3565-.5507.4659-.2383.1093-.5245.164-.8584.164Zm5.0683.835v.6855h-2.2705v-.6855H54.02Zm-1.9834-3.5801v4.2656h-.8789V31.515h.8789Zm1.6875 1.7373v.668h-1.9746v-.668h1.9746Zm.293-1.7373v.6885h-2.2676v-.6885h2.2676Zm2.4814 0v4.2656h-.8759V31.515h.8759Zm1.3125 0v.6885h-3.4804v-.6885h3.4804Zm3.3633 3.5801v.6855h-2.2705v-.6855h2.2705Zm-1.9834-3.5801v4.2656h-.8789V31.515h.8789Zm1.6875 1.7373v.668h-1.9746v-.668h1.9746Zm.293-1.7373v.6885h-2.2676v-.6885h2.2676Zm.5156 0h1.5908c.3262 0 .6065.0488.8409.1465.2363.0977.4179.2422.5449.4336.1269.1914.1904.4268.1904.706 0 .2286-.0391.4249-.1172.5889a1.1027 1.1027 0 0 1-.3252.4072c-.1387.1075-.3017.1934-.4892.2579l-.2784.1464h-1.3828l-.0058-.6855h1.0283c.1543 0 .2822-.0274.3838-.082.1015-.0547.1777-.1309.2285-.2286.0527-.0976.0791-.2109.0791-.3398 0-.1367-.0254-.2549-.0762-.3545-.0508-.0996-.1279-.1758-.2314-.2285-.1035-.0527-.2334-.0791-.3897-.0791h-.7119v3.5771h-.8789V31.515Zm2.3848 4.2656-.9727-1.9013.9287-.0059.9844 1.8662v.041h-.9404Zm3.6797-1.1162c0-.0761-.0118-.1445-.0352-.205-.0215-.0625-.0625-.1192-.123-.17-.0606-.0527-.1455-.1045-.2549-.1552-.1094-.0508-.251-.1036-.4248-.1582a5.3767 5.3767 0 0 1-.5508-.211c-.1719-.0781-.3242-.1689-.457-.2724-.1309-.1055-.2344-.2276-.3106-.3663-.0742-.1386-.1113-.2998-.1113-.4834 0-.1777.039-.3388.1172-.4834.0781-.1464.1875-.2714.3281-.375.1406-.1054.3066-.1865.498-.2431.1934-.0567.4053-.085.6358-.085.3144 0 .5889.0567.8232.1699.2344.1133.416.2686.545.4659.1308.1972.1962.4228.1962.6767h-.873c0-.125-.0264-.2344-.0791-.3281-.0508-.0957-.1289-.1709-.2344-.2256-.1035-.0547-.2344-.082-.3926-.082-.1523 0-.2793.0234-.3808.0703-.1016.0449-.1778.1064-.2285.1846-.0508.0761-.0762.1621-.0762.2578 0 .0722.0176.1377.0527.1963.0371.0586.0918.1132.1641.164.0723.0508.1611.0987.2666.1436.1055.0449.2275.0888.3662.1318.2324.0703.4365.1494.6123.2373.1777.0879.3262.1865.4453.2959.1192.1094.209.2334.2696.3721.0605.1387.0908.2959.0908.4717 0 .1855-.0362.3515-.1084.498-.0723.1465-.1768.2705-.3135.3721-.1367.1015-.2998.1787-.4893.2314-.1894.0528-.4013.0791-.6357.0791a2.4114 2.4114 0 0 1-.624-.082c-.2051-.0566-.3916-.1416-.5596-.2549a1.2846 1.2846 0 0 1-.3984-.4336c-.0996-.1758-.1494-.3838-.1494-.624h.8818c0 .1328.0205.2451.0615.3369.041.0918.0986.166.1729.2227.0761.0566.166.0976.2695.123.1055.0254.2207.0381.3457.0381.1523 0 .2773-.0215.375-.0644.0996-.043.1728-.1026.2197-.1788.0489-.0761.0733-.1621.0733-.2578Z"></path>
  </symbol>
  <symbol xmlns="http://www.w3.org/2000/svg" viewBox="0 0 63 46" id="group3">
    <path  d="M4.7919 38.373c.2455.2735.3762.6161.3694.9677a1.3964 1.3964 0 0 1-.1315.6698c-.0991.2116-.2498.4004-.4409.5525-.4769.3242-1.0676.4827-1.6638.4463H0v-6.1324h2.8651c.5656-.0338 1.1267.1102 1.5874.4075.185.1394.3315.3156.428.5147a1.28 1.28 0 0 1 .1277.6326c.0168.3383-.1012.6709-.3328.9377-.2223.2437-.5295.4126-.8718.4794.388.0637.7383.2495.9883.5242Zm-3.4309-.9257h1.2246c.2783.0186.5548-.0538.7787-.2037a.7316.7316 0 0 0 .209-.272.662.662 0 0 0 .0539-.3271.6843.6843 0 0 0-.055-.3259.753.753 0 0 0-.2046-.2733c-.2306-.1542-.5156-.2276-.802-.2067H1.361v1.6087Zm2.1231 2.3517a.7693.7693 0 0 0 .2258-.281.6937.6937 0 0 0 .0637-.3421.7047.7047 0 0 0-.0667-.3456.7824.7824 0 0 0-.2294-.2835c-.2397-.1599-.5343-.2384-.832-.2217H1.361v1.6866h1.3012c.2928.0152.5827-.0598.8219-.2127ZM10.6487 41.0093l-1.594-2.3966h-.599v2.3966h-1.371v-6.1324h2.5956c.6543-.0411 1.3011.1455 1.807.5213.3628.3328.5816.7714.617 1.2366.0354.4653-.115.9266-.424 1.3009-.3203.3302-.7577.5504-1.2379.6231l1.6971 2.4505h-1.4908Zm-2.193-3.2324h1.1215c.7786 0 1.168-.3096 1.168-.9287a.831.831 0 0 0-.0627-.3716.908.908 0 0 0-.2235-.3175c-.2461-.1842-.563-.2736-.8818-.2486H8.4424l.0133 1.8664ZM18.1426 39.7752h-2.732l-.4826 1.2342h-1.4375l2.5091-6.0635h1.554l2.4991 6.0635h-1.4376l-.4725-1.2342Zm-.366-.9287-.9984-2.5884-.9983 2.5884h1.9967ZM27.5234 41.0094h-1.361l-3.0515-4.1702v4.1702h-1.3577V34.877h1.3577l3.0515 4.1941V34.877h1.361v6.1324ZM35.2903 39.5415c-.2814.463-.7102.8396-1.2313 1.0814-.5924.2694-1.2499.4022-1.9134.3865H29.723V34.877h2.4226c.6623-.0156 1.319.114 1.9134.3775.521.2363.9502.6092 1.2313 1.0695.2801.4987.4261 1.0498.4261 1.6087s-.146 1.11-.4261 1.6088Zm-1.5574-.1468c.3884-.4074.602-.9266.602-1.4635s-.2136-1.056-.602-1.4634c-.4695-.369-1.0818-.5564-1.7038-.5213h-.945v3.9694h.945c.622.0351 1.2343-.1522 1.7038-.5212ZM18.9945.7667s17.5669 5.9707 17.1942 14.6106v14.6135s-17.5536-5.9736-17.1875-14.6135L18.9945.7667ZM51.8389 26.5694c3.3176-2.0555 7.1552-3.3286 11.1611-3.7028V18.292c-4.6158 1.6015-8.5314 4.5055-11.1611 8.2774Z"></path>
    <path d="M49.8456 27.9478c2.7155-4.9225 7.423-8.721 13.1544-10.6142V4.1521s-25.0177 8.5051-24.4886 20.8088v20.8059s1.1148-.3805 2.8685-1.0935c0-.665 0-1.3361.0799-2.0102.5178-5.712 3.5341-11.005 8.3858-14.7153Z"></path>
    <path d="M47.4663 35.6769a19.5695 19.5695 0 0 1 .8752-4.26c-3.021 3.2042-4.8505 7.1802-5.2311 11.369-.0366.3955-.0566.7909-.0666 1.1984 1.421-.6142 3.0748-1.3811 4.8119-2.2828a19.4295 19.4295 0 0 1-.3894-6.0246ZM48.4612 35.7519a18.5672 18.5672 0 0 0 .3095 5.4553c6.8351-3.6818 14.5154-9.3709 14.2193-16.2462v-.5992c-4.8834.4919-9.4523 2.4138-13.0047 5.4703-.8317 1.8942-1.3454 3.8893-1.5241 5.9198Z"></path>
  </symbol>
  <symbol xmlns="http://www.w3.org/2000/svg" viewBox="0 0 94 45" id="group4">
    <path  d="M47.5293 21.4433c-.444-.5909-.6564-1.2891-.606-1.992v-2.8881c0-.8853.2009-1.5581.6026-2.0184.4018-.4603 1.0918-.6894 2.0701-.6875.9193 0 1.5719.1959 1.9577.5876.4209.4998.6257 1.1111.5788 1.7276v.6787H50.488v-.6875a3.4973 3.4973 0 0 0-.0476-.6728c-.0237-.1523-.1065-.2932-.2349-.3996-.1689-.1147-.3816-.1703-.5959-.1557-.2253-.0145-.4487.0441-.6264.1645-.1433.1179-.2388.2724-.2724.4407a3.3415 3.3415 0 0 0-.0647.7139v3.5051c-.0259.3381.0466.6765.2111.9842.0818.1042.1954.1867.3282.2386a.9026.9026 0 0 0 .4242.0552c.2107.015.4197-.042.5822-.1586.134-.1148.2202-.2645.2452-.426a3.8553 3.8553 0 0 0 .051-.7022v-.711h1.6445v.6493c.0462.6426-.1536 1.2806-.5686 1.8157-.3779.4289-1.0214.6434-1.9679.6434-.9465 0-1.6615-.2291-2.0667-.7051ZM54.3763 21.4727c-.4153-.4495-.623-1.1047-.623-1.9714v-3.038c0-.8579.2077-1.5072.623-1.9479.4154-.4407 1.11-.66 2.0837-.6581.9669 0 1.6581.2194 2.0734.6581.4154.4407.6265 1.09.6265 1.9479v3.038c0 .8579-.2111 1.516-.6333 1.9684-.4222.4525-1.1099.6787-2.0666.6787-.9567 0-1.6649-.2291-2.0837-.6757Zm2.8497-.7287c.1488-.2815.2165-.59.1975-.899v-3.7195c.0191-.3031-.0475-.6056-.1941-.8814-.0834-.1064-.1998-.1903-.3358-.2422a.9068.9068 0 0 0-.4336-.0516.9195.9195 0 0 0-.4348.0522c-.1365.0519-.2535.1355-.3381.2416-.1497.275-.2176.578-.1974.8814v3.7371c-.0207.3092.0471.6179.1974.8991a1.027 1.027 0 0 0 .3469.2228 1.161 1.161 0 0 0 .4226.0789 1.161 1.161 0 0 0 .4226-.0789 1.0255 1.0255 0 0 0 .3468-.2228v-.0177ZM61.1378 13.946h1.7705l1.3312 5.6052 1.3619-5.6052h1.7228l.1736 8.0905h-1.2734l-.1361-5.6228-1.3143 5.6228h-1.0214l-1.3619-5.6434-.1259 5.6434h-1.287l.16-8.0905ZM69.4829 13.946h2.7577c1.5889 0 2.3833.7658 2.3833 2.2973 0 1.4669-.8364 2.1994-2.5092 2.1974h-.9397v3.5958h-1.7023l.0102-8.0905Zm2.356 3.4577c.1682.0184.339.0051.5007-.039a1.2264 1.2264 0 0 0 .4356-.2166c.1952-.2732.2813-.5941.2451-.9136a2.5302 2.5302 0 0 0-.0817-.7344.5958.5958 0 0 0-.1253-.222.7049.7049 0 0 0-.2152-.1629 1.7631 1.7631 0 0 0-.7592-.1292h-.6605v2.4177h.6605ZM77.0787 13.946h1.8283l1.876 8.0905h-1.5866l-.3711-1.8655h-1.6308l-.3813 1.8655h-1.6104l1.8759-8.0905Zm1.5628 5.2879-.6367-3.396-.6367 3.396h1.2734ZM82.2981 13.946h1.1916l2.2812 4.6152V13.946h1.4129v8.0905h-1.1337l-2.2948-4.8179v4.8179h-1.4606l.0034-8.0905ZM90.4932 18.9516l-1.8964-4.9943h1.5968l1.1576 3.2081 1.0861-3.2081H94l-1.8726 4.9943v3.0847h-1.6342v-3.0847ZM50.1579 25.5736v.4231h-1.3891v3.2875h-.5822v-3.2875h-1.396v-.4231h3.3673ZM54.5123 29.2844h-.4494a.1998.1998 0 0 1-.126-.0352.1934.1934 0 0 1-.0749-.0852l-.4017-.8813h-1.9271l-.4018.8813a.243.243 0 0 1-.0612.0999.2078.2078 0 0 1-.126.0352h-.4494l1.7023-3.7104h.5924l1.7228 3.6957Zm-2.8191-1.3778h1.6071l-.681-1.51a2.7033 2.7033 0 0 1-.126-.3496c-.0238.0705-.0442.1381-.0647.1969l-.0612.1557-.6742 1.507ZM57.4472 28.9202c.1066.0048.2134.0048.32 0a1.9257 1.9257 0 0 0 .2724-.0441 2.0993 2.0993 0 0 0 .2452-.0676c.0749-.0264.1498-.0587.2281-.0911v-.8344h-.681a.1423.1423 0 0 1-.0495-.0064.128.128 0 0 1-.0424-.023.0864.0864 0 0 1-.0259-.0304.0746.0746 0 0 1-.0081-.0372v-.285h1.321v1.4221a2.5709 2.5709 0 0 1-.3405.1763 2.509 2.509 0 0 1-.3779.1263 3.0537 3.0537 0 0 1-.4256.0764 5.1531 5.1531 0 0 1-.4971.0235 2.596 2.596 0 0 1-.858-.1381c-.2549-.0884-.4865-.2203-.6809-.3878-.1896-.1692-.3388-.3688-.4392-.5876a1.8544 1.8544 0 0 1-.1566-.7698 1.9229 1.9229 0 0 1 .1532-.7757c.0979-.2199.2474-.42.4392-.5876.1943-.167.426-.2979.6809-.3849a2.8586 2.8586 0 0 1 .9125-.1381 3.4149 3.4149 0 0 1 .4732.0323 2.334 2.334 0 0 1 .4052.094c.1191.0386.2332.0878.3405.1469.1043.058.2034.1228.2962.1939l-.1634.2292a.1426.1426 0 0 1-.0553.0509.1709.1709 0 0 1-.0775.0196.2224.2224 0 0 1-.1056-.0294 2.1031 2.1031 0 0 1-.1668-.0881 1.5103 1.5103 0 0 0-.2281-.0999 2.1372 2.1372 0 0 0-.3133-.0823 2.6253 2.6253 0 0 0-.4324-.0323 2.018 2.018 0 0 0-.6571.1028c-.1894.0656-.3602.1659-.5004.2939-.1411.1334-.2489.2904-.3167.4613a1.7335 1.7335 0 0 0 0 1.2369c.0745.1745.1905.3337.3405.4672.1396.1273.3091.2275.4971.2938.2165.0641.4459.0892.6741.0735ZM62.8744 28.8611h1.859v.4231h-2.4276v-3.7106h.5822l-.0136 3.2875ZM66.6672 29.2842h-.5822v-3.7106h.5822v3.7106ZM68.8325 25.5913c.0346.017.0648.04.0886.0676l2.4887 2.797a.884.884 0 0 1 0-.1322V25.559h.5073v3.7255h-.2928a.2758.2758 0 0 1-.1259-.0206.3308.3308 0 0 1-.092-.0705l-2.4853-2.7941V29.2845h-.4869v-3.7108h.303c.0329 0 .0653.006.0953.0176ZM76.2037 25.5736v.4084h-2.0632v1.2251h1.6717v.3937h-1.6717v1.2663h2.0632v.4083h-2.6624v-3.7018h2.6624ZM15.1952 2.6587l25.8518 6.334v22.1956l-25.8518-6.3311V2.6587ZM13.5371.7667v25.1687l29.1646 7.1478V7.9175L13.5371.7667Z"></path>
    <path  d="M29.168 44.7667 0 37.6129v-25.166l29.168 7.1508v25.169Z"></path>
    <path  d="m14.0205 2.3737 25.5147 6.2546-10.8507 9.3658-25.5181-6.2576 10.8541-9.3628ZM13.537.7667 0 12.4475l29.168 7.1506L42.7016 7.9174 13.537.7667ZM30.8091 43.3509l11.8925-10.2646-11.8925-2.9172v13.1818Z"></path>
  </symbol>
  <symbol xmlns="http://www.w3.org/2000/svg" viewBox="0 0 16 16" id="instagram">
    <g fill="#F4F4FD" clip-path="url(#a)">
      <path d="M15.9843 4.704c-.0375-.8502-.175-1.4347-.3719-1.9411-.2032-.5376-.5157-1.019-.9252-1.419a3.938 3.938 0 0 0-1.4159-.922c-.5094-.197-1.0908-.3345-1.941-.372C10.4738.0093 10.2019 0 8.0296 0S5.5854.0093 4.7321.0468c-.8501.0374-1.4346.175-1.941.3719-.5376.2031-1.019.5157-1.419.9252a3.9392 3.9392 0 0 0-.922 1.416C.253 3.2692.1155 3.8505.078 4.7007c-.0406.8564-.05 1.1283-.05 3.3006s.0094 2.4442.0469 3.2976c.0374.8501.175 1.4346.372 1.941a3.9453 3.9453 0 0 0 .925 1.419 3.9367 3.9367 0 0 0 1.416.922c.5095.197 1.0908.3345 1.941.3719.8533.0377 1.1253.0469 3.2976.0469s2.4442-.0092 3.2975-.0469c.8501-.0374 1.4346-.1749 1.9409-.3719a4.0925 4.0925 0 0 0 2.3412-2.341c.1968-.5095.3344-1.0909.3719-1.941.0375-.8534.0469-1.1253.0469-3.2976s-.0032-2.4442-.0407-3.2975Zm-1.4408 6.5324c-.0345.7815-.1657 1.2034-.2751 1.4847a2.6543 2.6543 0 0 1-1.5191 1.5191c-.2813.1094-.7063.2407-1.4847.275-.8439.0376-1.097.0468-3.2318.0468s-2.391-.0092-3.232-.0468c-.7813-.0343-1.2033-.1656-1.4846-.275-.3469-.1282-.6626-.3314-.9189-.597a2.4877 2.4877 0 0 1-.597-.9189c-.1094-.2813-.2407-.7064-.275-1.4847-.0376-.8439-.0469-1.0971-.0469-3.232 0-2.1348.0093-2.391.047-3.2318.0342-.7814.1655-1.2033.2749-1.4846.1282-.347.3313-.6626.6002-.919a2.4836 2.4836 0 0 1 .9189-.597c.2813-.1093.7064-.2406 1.4846-.275.844-.0375 1.0972-.047 3.2319-.047 2.1379 0 2.391.0095 3.2319.047.7814.0344 1.2034.1657 1.4847.275.3468.1281.6626.3313.9189.597.2656.2594.4688.572.597.919.1094.2813.2406.7063.2751 1.4846.0375.844.0469 1.097.0469 3.2319 0 2.1348-.0094 2.3848-.0469 3.2287Z"></path>
      <path d="M8.0297 3.8912c-2.2691 0-4.1102 1.841-4.1102 4.1102 0 2.2693 1.841 4.1102 4.1102 4.1102 2.2692 0 4.1101-1.8409 4.1101-4.1102 0-2.2692-1.8409-4.1102-4.1101-4.1102Zm0 6.7764c-1.4721 0-2.6662-1.194-2.6662-2.6662s1.194-2.6662 2.6662-2.6662 2.6661 1.194 2.6661 2.6662-1.194 2.6662-2.6661 2.6662ZM13.262 3.7287c0 .5299-.4296.9596-.9596.9596-.5299 0-.9596-.4297-.9596-.9596 0-.53.4297-.9595.9596-.9595.53 0 .9596.4295.9596.9595Z"></path>
    </g>
    <defs>
      <clipPath id="a">
        <path fill="#fff" d="M0 0h16v16H0z"></path>
      </clipPath>
    </defs>
  </symbol>
  <symbol xmlns="http://www.w3.org/2000/svg" fill="none" viewBox="0 0 16 16" id="linkedin">
    <g fill="#F4F4FD" clip-path="url(#a)">
      <path d="M15.9961 15.9999v-.0007h.004v-5.868c0-2.8707-.618-5.082-3.974-5.082-1.6133 0-2.696.8853-3.138 1.7247h-.0467V5.3172h-3.182v10.682h3.3134v-5.2893c0-1.3927.264-2.7394 1.9886-2.7394 1.6994 0 1.7247 1.5894 1.7247 2.8287v5.2007h3.31ZM.264 5.3179h3.3174v10.682H.264V5.3179ZM1.9214-.0001C.8607-.0001 0 .8605 0 1.9212s.8606 1.9393 1.9213 1.9393 1.9213-.8786 1.9213-1.9393C3.8421.8605 2.9814 0 1.9214 0Z"></path>
    </g>
    <defs>
      <clipPath id="a">
        <path fill="#fff" d="M0 0h16v16H0z"></path>
      </clipPath>
    </defs>
  </symbol>
  <symbol aria-hidden="true" version="1.1" xmlns="http://www.w3.org/2000/svg" xmlns:xlink="http://www.w3.org/1999/xlink" viewBox="0 0 undefined undefined" id="symbol-defs">
    <defs>
      <symbol id="icon-antenna" viewBox="0 0 32 32">
        <path fill="#2e2f42" d="M30.773 22.098l-8.443-8.505 0.937-4.615c0.225 0.090 0.485 0.144 0.758 0.146h0.007c1.192 0.014 2.17-0.941 2.184-2.133s-0.941-2.17-2.133-2.184c-1.192-0.014-2.17 0.941-2.184 2.133-0 0.008-0 0.017-0 0.026 0 0.259 0.046 0.508 0.13 0.739l-0.005-0.015-4.96 0.605-8.091-8.133c-0.096-0.098-0.229-0.159-0.376-0.16h-0c-0.14 0.001-0.274 0.057-0.373 0.155l-1.513 1.504c-0.208 0.208-0.208 0.546 0 0.754l0.814 0.826c-3.153 5.798-2.129 12.978 2.52 17.663 0.043 0.041 0.092 0.074 0.146 0.098-0.032 0.164-0.051 0.353-0.052 0.546v6.188h-6.4c-1.472 0.002-2.665 1.195-2.667 2.667v1.067c0 0.295 0.239 0.533 0.533 0.533h24.533c0.295 0 0.533-0.239 0.533-0.533v-1.067c-0.002-1.472-1.195-2.665-2.667-2.667h-6.4v-2.742c0.915 0.201 1.968 0.317 3.047 0.32h0.002c2.58-0.003 5.005-0.663 7.117-1.822l-0.077 0.039 0.818 0.823c0.099 0.101 0.235 0.159 0.377 0.16 0.14-0.001 0.274-0.056 0.373-0.155l1.513-1.504c0.208-0.208 0.208-0.546 0-0.754zM23.28 6.233c0.418-0.415 1.093-0.414 1.509 0.004s0.414 1.093-0.004 1.508c-0.193 0.192-0.459 0.31-0.752 0.31-0 0-0 0-0 0h-0.003c-0.589-0.003-1.064-0.483-1.061-1.072 0.002-0.294 0.122-0.559 0.314-0.751l0-0h-0.002zM22.024 9.738l-0.598 2.946-1.175-1.182 1.774-1.763zM21.419 8.836l-1.92 1.909-1.485-1.493 3.405-0.415zM24.004 28.8c0.884 0 1.6 0.716 1.6 1.6v0.533h-23.467v-0.533c0-0.884 0.716-1.6 1.6-1.6h20.267zM16.537 26.667v1.067h-5.333v-1.067h5.333zM11.204 25.6v-4.053c0-1.294 1.196-2.347 2.667-2.347s2.667 1.053 2.667 2.347v4.053h-5.333zM17.604 23.904v-2.357c0-1.882-1.675-3.413-3.733-3.413-0.017-0-0.038-0-0.058-0-1.353 0-2.54 0.707-3.214 1.771l-0.009 0.016c-4.058-4.274-4.971-10.645-2.279-15.887l18.602 18.708c-1.823 0.947-3.98 1.502-6.266 1.502-1.079 0-2.128-0.124-3.136-0.357l0.093 0.018zM28.893 23.22l-21.057-21.181 0.755-0.752 7.935 7.98c0.004 0 0.006 0.007 0.010 0.010l13.115 13.191-0.757 0.752z"></path>
        <path fill="#4d5ae5" d="M13.876 20.267h-0.005c-0.884-0.001-1.601 0.714-1.602 1.598s0.714 1.601 1.598 1.602h0.005c0.884 0.001 1.601-0.714 1.602-1.598s-0.714-1.601-1.598-1.602zM14.249 22.245c-0.096 0.096-0.229 0.155-0.376 0.155-0.001 0-0.001 0-0.002 0h0c-0.295-0.002-0.532-0.242-0.531-0.536 0.001-0.147 0.061-0.279 0.157-0.375l0-0c0.096-0.095 0.228-0.154 0.373-0.155h0c0.295 0.002 0.532 0.242 0.531 0.536-0.001 0.147-0.061 0.279-0.157 0.375l-0 0h0.005z"></path>
      </symbol>
      <symbol id="icon-astronaut" viewBox="0 0 32 32">
        <path fill="#4d5ae5" d="M31.974 4.524c-0.064-0.191-0.227-0.332-0.427-0.362l-0.003-0-1.91-0.278-0.855-1.731c-0.179-0.365-0.777-0.365-0.956 0l-0.855 1.731-1.91 0.278c-0.203 0.030-0.367 0.171-0.43 0.359l-0.001 0.004c-0.062 0.193-0.011 0.405 0.135 0.547l1.383 1.348-0.326 1.903c-0.034 0.2 0.048 0.402 0.212 0.522 0.087 0.064 0.196 0.102 0.313 0.102 0.091 0 0.177-0.023 0.252-0.063l-0.003 0.001 1.709-0.899 1.709 0.899c0.072 0.039 0.158 0.061 0.248 0.061 0 0 0 0 0 0v0c0.11 0 0.221-0.034 0.314-0.102 0.134-0.098 0.22-0.254 0.22-0.431 0-0.032-0.003-0.063-0.008-0.094l0 0.003-0.326-1.903 1.383-1.348c0.099-0.097 0.161-0.233 0.161-0.382 0-0.059-0.009-0.115-0.027-0.168l0.001 0.004zM29.511 5.851c-0.099 0.097-0.161 0.232-0.161 0.382 0 0.032 0.003 0.063 0.008 0.094l-0-0.003 0.191 1.114-1-0.526c-0.072-0.039-0.157-0.061-0.248-0.061-0 0-0 0-0.001 0h0c-0.085 0-0.17 0.020-0.249 0.061l-1.001 0.526 0.191-1.114c0.005-0.027 0.008-0.058 0.008-0.090 0-0.15-0.062-0.285-0.161-0.382l-0.81-0.789 1.119-0.163c0.177-0.026 0.324-0.137 0.4-0.289l0.001-0.003 0.5-1.013 0.5 1.013c0.078 0.157 0.228 0.267 0.402 0.292l1.119 0.163-0.809 0.789zM26.134 20.522h-1.067v1.067h1.067v-1.067zM26.134 22.656h-1.067v1.067h1.067v-1.067zM27.2 21.589h-1.067v1.067h1.067v-1.067z"></path>
        <path fill="#4d5ae5" d="M25.067 21.589h-1.067v1.067h1.067v-1.067zM22.4 26.389h-1.067v1.067h1.067v-1.067zM22.4 28.522h-1.067v1.067h1.067v-1.067zM23.467 27.456h-1.067v1.067h1.067v-1.067zM21.333 27.456h-1.067v1.067h1.067v-1.067zM16 24.256h-1.067v1.067h1.067v-1.067zM16 26.389h-1.067v1.067h1.067v-1.067zM17.067 25.322h-1.067v1.067h1.067v-1.067zM14.933 25.322h-1.067v1.067h1.067v-1.067zM5.867 6.122h-1.067v1.067h1.067v-1.067zM5.867 8.255h-1.067v1.067h1.067v-1.067z"></path>
        <path fill="#4d5ae5" d="M6.933 7.189h-1.067v1.067h1.067v-1.067zM4.8 7.189h-1.067v1.067h1.067v-1.067z"></path>
        <path fill="#2e2f42" d="M24.715 14.159c-0.287-0.388-0.709-0.637-1.188-0.705-0.481-0.068-0.956 0.058-1.34 0.352l-1.252 0.96-1.898 1.417-1.358-0.541c2.421-1.086 4.114-3.508 4.114-6.32 0-3.823-3.123-6.933-6.961-6.933s-6.961 3.11-6.961 6.933c0 1.386 0.414 2.674 1.12 3.758l-2.769-0.024c-0.009 0-0.015 0.004-0.023 0.005-0.056 0.003-0.109 0.014-0.159 0.032l0.004-0.001c-0.013 0.005-0.026 0.008-0.038 0.013-0.006 0.003-0.013 0.003-0.019 0.006l-3.233 1.596c-0.001 0-0.001 0-0.001 0.001l-1.893 0.911c-0.024 0.011-0.045 0.023-0.064 0.036l0.001-0.001c-0.755 0.502-1.012 1.489-0.598 2.295 0.22 0.429 0.595 0.745 1.056 0.889 0.161 0.052 0.347 0.082 0.539 0.083h0c0.29 0 0.577-0.071 0.839-0.211l1.388-0.738 2.264-1.169 1.357-0.008-5.442 5.416c-0.001 0.001-0.001 0.001-0.002 0.001l-1.339 1.333c-0.316 0.315-0.49 0.732-0.49 1.178s0.174 0.863 0.49 1.179c0.325 0.323 0.752 0.485 1.179 0.485s0.854-0.162 1.18-0.485l1.314-1.309 1.741-1.3 0.901 0.897-1.762 1.754c-0 0.001-0.001 0.001-0.002 0.001l-1.339 1.333c-0.316 0.315-0.49 0.732-0.49 1.178s0.174 0.863 0.49 1.179c0.325 0.323 0.753 0.485 1.18 0.485s0.855-0.162 1.18-0.485l3.482-3.467c0.001-0.001 0.001-0.001 0.001-0.002l1.010-1-0.004-0.004c0.006-0.006 0.015-0.009 0.022-0.015l5.166-5.658 3.471 0.494c0.025 0.004 0.050 0.005 0.075 0.005 0.065 0 0.127-0.015 0.187-0.038 0.018-0.006 0.033-0.015 0.050-0.023 0.019-0.010 0.039-0.015 0.058-0.027l3.213-2.133c0.012-0.008 0.018-0.021 0.029-0.029 0.013-0.010 0.029-0.014 0.041-0.026l1.271-1.191c0.662-0.62 0.753-1.635 0.212-2.362zM2.13 17.77c-0.173 0.093-0.37 0.111-0.558 0.052-0.187-0.058-0.338-0.186-0.427-0.358-0.161-0.314-0.068-0.695 0.214-0.902l1.314-0.632 0.449 1.313-0.992 0.527zM5.628 15.942l-1.548 0.8-0.256-0.747-0.183-0.537 2.027-1.001-0.040 1.484zM20.727 9.322c0 0.918-0.219 1.785-0.599 2.559l-4.181-1.899c-0.044-0.573-0.341-1.075-0.788-1.388l1.464-4.86c2.378 0.756 4.105 2.974 4.105 5.588zM8.938 9.322c0-3.235 2.644-5.867 5.894-5.867 0.253 0 0.5 0.021 0.745 0.052l-1.432 4.754c-0.019-0.001-0.037-0.006-0.057-0.006-1.033 0-1.873 0.837-1.873 1.867s0.84 1.867 1.873 1.867c0.694 0 1.294-0.383 1.618-0.945l3.862 1.755c-1.075 1.446-2.795 2.39-4.737 2.39-3.25 0-5.894-2.632-5.894-5.867zM14.894 10.122c0 0.441-0.362 0.8-0.806 0.8s-0.806-0.359-0.806-0.8c0-0.441 0.362-0.8 0.806-0.8s0.806 0.359 0.806 0.8zM2.465 25.146c-0.236 0.234-0.619 0.234-0.854 0.001-0.114-0.114-0.176-0.263-0.176-0.423s0.062-0.309 0.176-0.421l0.962-0.958 0.851 0.848-0.959 0.955zM5.679 28.88c-0.236 0.234-0.619 0.235-0.855 0.001-0.114-0.114-0.176-0.263-0.176-0.423s0.062-0.309 0.176-0.421l0.963-0.959 0.852 0.848-0.96 0.955zM9.16 25.411c-0.001 0-0.001 0-0.002 0.001l-1.765 1.76-0.852-0.848 1.763-1.756c0.001-0.001 0.001-0.001 0.002-0.001 0.040-0.040 0.065-0.088 0.090-0.135 0.007-0.014 0.020-0.026 0.026-0.040 0.017-0.041 0.019-0.085 0.026-0.129 0.003-0.025 0.014-0.047 0.014-0.073 0-0.036-0.013-0.070-0.020-0.106-0.006-0.032-0.006-0.065-0.019-0.095-0.020-0.050-0.055-0.094-0.091-0.138-0.010-0.012-0.014-0.027-0.025-0.038h-0.001c-0.001-0-0.001-0.002-0.001-0.002l-1.607-1.6c-0.017-0.017-0.039-0.024-0.058-0.038-0.028-0.022-0.055-0.042-0.087-0.058-0.030-0.015-0.061-0.024-0.093-0.033-0.034-0.010-0.067-0.017-0.103-0.020-0.033-0.002-0.063 0.001-0.095 0.005-0.036 0.004-0.069 0.009-0.104 0.020-0.034 0.011-0.063 0.027-0.094 0.045-0.020 0.011-0.042 0.015-0.061 0.029l-1.773 1.324-0.901-0.897 2.399-2.386 4.361 4.289-0.928 0.919zM15.979 18.394c-0.015-0.002-0.030 0.004-0.045 0.003-0.008-0-0.017-0.001-0.026-0.001-0.031 0-0.062 0.003-0.092 0.008l0.003-0c-0.030 0.005-0.059 0.011-0.088 0.021-0.034 0.012-0.065 0.028-0.097 0.047s-0.059 0.039-0.084 0.062l0-0c-0.013 0.011-0.028 0.017-0.040 0.029l-4.698 5.146-4.328-4.257 2.833-2.818c0.209-0.208 0.21-0.546 0.002-0.755-0.105-0.105-0.243-0.157-0.381-0.156v-0.001l-2.219 0.013 0.028-1.607 3.104 0.027c1.265 1.294 3.029 2.101 4.981 2.101 0.437 0 0.864-0.045 1.279-0.123 0.040 0.032 0.079 0.065 0.13 0.085l2.41 0.96 0.152 0.758 0.178 0.885-3.003-0.427zM20.020 18.572l-0.313-1.558 1.446-1.080 0.947 1.257-2.080 1.381zM23.774 15.741l-0.838 0.785-0.931-1.236 0.831-0.637c0.155-0.119 0.351-0.168 0.543-0.143 0.193 0.027 0.364 0.128 0.48 0.284 0.088 0.117 0.141 0.265 0.141 0.426 0 0.206-0.087 0.391-0.226 0.521l-0 0z"></path>
        <path fill="#2e2f42" d="M13.602 18.544l-2.143-2.133c-0.207-0.207-0.545-0.207-0.753 0l-2.142 2.133c-0.097 0.097-0.157 0.23-0.157 0.378v0c0 0.142 0.056 0.278 0.157 0.378l2.142 2.133c0.104 0.103 0.241 0.155 0.377 0.155s0.273-0.052 0.376-0.155l2.143-2.133c0.097-0.097 0.157-0.23 0.157-0.378v-0c0-0.142-0.057-0.278-0.157-0.378zM11.083 20.303l-1.387-1.381 1.387-1.381 1.387 1.381-1.387 1.381zM17.164 5.071l-0.258 1.036c0.071 0.018 1.738 0.452 1.738 2.149h1.067c-0-2.017-1.666-2.965-2.547-3.185zM19.711 9.322h-1.067v1.067h1.067v-1.067z"></path>
      </symbol>
      <symbol id="icon-clock" viewBox="0 0 32 32">
        <path fill="#2e2f42" d="M31.297 15.301c-0.002-8.452-6.855-15.303-15.308-15.301s-15.303 6.855-15.301 15.308c0.001 6.658 4.307 12.551 10.649 14.576 0.055 0.018 0.119 0.029 0.185 0.029 0.001 0 0.001 0 0.002 0h-0c0.126-0 0.245-0.035 0.346-0.095l-0.003 0.002c0.135-0.080 0.236-0.207 0.283-0.356l3.865-12.25c1.057-0.005 1.909-0.866 1.903-1.923s-0.866-1.909-1.923-1.903c-0.299 0.001-0.581 0.072-0.831 0.196l0.011-0.005-5.106-5.107c-0.253-0.245-0.657-0.238-0.902 0.016-0.239 0.247-0.239 0.639 0 0.886l5.103 5.109c-0.392 0.799-0.168 1.764 0.536 2.309l-3.683 11.673c-7.278-2.681-11.004-10.754-8.323-18.032s10.754-11.004 18.032-8.323c7.278 2.681 11.004 10.754 8.323 18.032-1.345 3.581-4.003 6.406-7.374 7.938l-0.088 0.036-0.398-1.874c-0.073-0.345-0.411-0.565-0.756-0.492-0.114 0.025-0.213 0.077-0.293 0.149l0.001-0.001-3.837 3.426c-0.263 0.234-0.287 0.637-0.052 0.9 0.076 0.085 0.174 0.149 0.283 0.184l4.899 1.564c0.335 0.108 0.694-0.077 0.802-0.412 0.019-0.058 0.031-0.126 0.031-0.195 0-0.047-0.005-0.092-0.015-0.136l0.001 0.004-0.391-1.839c5.664-2.388 9.342-7.942 9.329-14.089zM15.992 14.664c0.352 0 0.638 0.286 0.638 0.638s-0.286 0.638-0.638 0.638c-0.352 0-0.638-0.285-0.638-0.638s0.285-0.638 0.638-0.638zM18.093 29.528l2.184-1.948 0.603 2.84-2.787-0.892z"></path>
        <path fill="#4d5ae5" d="M15.354 3.185v1.275c0 0.352 0.285 0.638 0.638 0.638s0.638-0.285 0.638-0.638v-1.275c0-0.352-0.286-0.638-0.638-0.638s-0.638 0.286-0.638 0.638zM3.876 14.664c-0.352 0-0.638 0.286-0.638 0.638s0.285 0.638 0.638 0.638h1.275c0.352 0 0.638-0.285 0.638-0.638s-0.285-0.638-0.638-0.638h-1.275zM28.108 15.939c0.352 0 0.638-0.285 0.638-0.638s-0.285-0.638-0.638-0.638h-1.275c-0.352 0-0.638 0.286-0.638 0.638s0.286 0.638 0.638 0.638h1.275z"></path>
      </symbol>
      <symbol id="icon-diagram" viewBox="0 0 32 32">
        <path fill="#4d5ae5" d="M14.926 14.965h1.066v4.798h-1.066v-4.797zM19.19 17.097h1.066v2.665h-1.066v-2.665zM10.661 18.696h1.066v1.066h-1.066v-1.066zM7.463 18.163h1.066v1.599h-1.066v-1.599z"></path>
        <path fill="#2e2f42" d="M1.599 28.291h25.587c0.883 0 1.599-0.716 1.599-1.599v-2.132c0-0.883-0.716-1.599-1.599-1.599h-0.533v-13.293l3.028-2.868c0.703 0.346 1.553 0.136 2.013-0.499s0.396-1.508-0.152-2.068c-0.548-0.56-1.42-0.644-2.065-0.198s-0.873 1.292-0.542 2.002l-2.281 2.163v-1.23c0-0.883-0.716-1.599-1.599-1.599h-21.322c-0.883 0-1.599 0.716-1.599 1.599v15.992h-0.533c-0.883 0-1.599 0.716-1.599 1.599v2.132c0 0.883 0.716 1.599 1.599 1.599zM30.384 4.837c0.294 0 0.533 0.239 0.533 0.533s-0.239 0.533-0.533 0.533c-0.294 0-0.533-0.239-0.533-0.533s0.239-0.533 0.533-0.533zM3.198 6.969c0-0.294 0.239-0.533 0.533-0.533h21.322c0.294 0 0.533 0.239 0.533 0.533v2.239l-1.066 1.013v-2.186c0-0.294-0.239-0.533-0.533-0.533h-19.19c-0.294 0-0.533 0.239-0.533 0.533v13.326c0 0.294 0.239 0.533 0.533 0.533h19.19c0.294 0 0.533-0.239 0.533-0.533v-9.674l1.066-1.010v12.284h-22.388v-15.992zM7.996 13.899c-0.721-0.002-1.354 0.478-1.546 1.174s0.105 1.433 0.725 1.801c0.62 0.368 1.41 0.276 1.928-0.226l1.853 0.93c0.069 0.035 0.151 0.056 0.238 0.056 0.158 0 0.3-0.069 0.398-0.178l0-0.001 3.939-4.431 3.872 2.901c0.208 0.156 0.498 0.139 0.686-0.039l3.365-3.188v8.131h-18.124v-12.26h18.124v2.66l-3.771 3.572-3.904-2.927c-0.088-0.066-0.199-0.107-0.32-0.107-0.158 0-0.3 0.069-0.398 0.178l-0 0.001-3.993 4.493-1.493-0.746c0.010-0.056 0.017-0.123 0.020-0.19l0-0.003c0-0.883-0.716-1.599-1.599-1.599zM8.529 15.498c0 0.294-0.239 0.533-0.533 0.533s-0.533-0.239-0.533-0.533c0-0.294 0.239-0.533 0.533-0.533s0.533 0.239 0.533 0.533zM11.727 24.027h5.331v0.533c0 0.294-0.239 0.533-0.533 0.533h-4.264c-0.294 0-0.533-0.239-0.533-0.533v-0.533zM1.066 24.56c0-0.294 0.239-0.533 0.533-0.533h9.062v0.533c0 0.883 0.716 1.599 1.599 1.599h4.264c0.883 0 1.599-0.716 1.599-1.599v-0.533h9.062c0.294 0 0.533 0.239 0.533 0.533v2.132c0 0.294-0.239 0.533-0.533 0.533h-25.587c-0.294 0-0.533-0.239-0.533-0.533v-2.132z"></path>
      </symbol>
    </defs>
  </symbol>
  <symbol xmlns="http://www.w3.org/2000/svg" fill="none" viewBox="0 0 16 16" id="twitter">
    <g clip-path="url(#a)">
      <path fill="#F4F4FD" d="M16 3.0389c-.595.261-1.229.434-1.89.518.68-.406 1.199-1.044 1.443-1.813-.634.378-1.334.645-2.08.794-.602-.641-1.46-1.038-2.396-1.038-1.816 0-3.278 1.474-3.278 3.281 0 .26.022.51.076.748-2.727-.133-5.14-1.44-6.761-3.431-.283.491-.449 1.053-.449 1.658 0 1.136.585 2.143 1.457 2.726-.527-.01-1.044-.163-1.482-.404v.036c0 1.594 1.137 2.918 2.628 3.223-.267.073-.558.108-.86.108-.21 0-.422-.012-.621-.056.425 1.299 1.631 2.254 3.065 2.285a6.5908 6.5908 0 0 1-4.067 1.399c-.269 0-.527-.012-.785-.045 1.453.937 3.175 1.472 5.032 1.472 6.036 0 9.336-5 9.336-9.334 0-.145-.005-.285-.012-.424.651-.462 1.198-1.039 1.644-1.703Z"></path>
    </g>
    <defs>
      <clipPath id="a">
        <path fill="#fff" d="M0 0h16v16H0z"></path>
      </clipPath>
    </defs>
  </symbol>
   <symbol fill="none" xmlns="http://www.w3.org/2000/svg" viewBox="0 0 8 8" id="closeblack">
    <g clip-path="url(#clip0_405702_622)">
      <path d="M8 0.805714L7.19429 0L4 3.19429L0.805714 0L0 0.805714L3.19429 4L0 7.19429L0.805714 8L4 4.80571L7.19429 8L8 7.19429L4.80571 4L8 0.805714Z" fill="black"></path>
    </g>
    <defs>
      <clipPath id="clip0_405702_622">
        <rect width="8" height="8" fill="white"></rect>
      </clipPath>
    </defs>
  </symbol>
  <symbol xmlns="http://www.w3.org/2000/svg" viewBox="0 0 18 24" id="icon-email">
    <g clip-path="url(#clip0_297083_8311)">
      <path d="M15 6H3C2.175 6 1.5075 6.675 1.5075 7.5L1.5 16.5C1.5 17.325 2.175 18 3 18H15C15.825 18 16.5 17.325 16.5 16.5V7.5C16.5 6.675 15.825 6 15 6ZM14.7 9.1875L9.3975 12.5025C9.1575 12.6525 8.8425 12.6525 8.6025 12.5025L3.3 9.1875C3.1125 9.0675 3 8.865 3 8.6475C3 8.145 3.5475 7.845 3.975 8.1075L9 11.25L14.025 8.1075C14.4525 7.845 15 8.145 15 8.6475C15 8.865 14.8875 9.0675 14.7 9.1875Z" ></path>
    </g>
    <defs>
      <clipPath id="clip0_297083_8311">
        <rect width="18" height="24" ></rect>
      </clipPath>
    </defs>
  </symbol>
  <symbol  xmlns="http://www.w3.org/2000/svg" viewBox="0 0 24 24" id="telegram">
    <path d="M24 2L0 13.25L7.66994 15.6172L19.5 6.375L10.5017 16.4913L10.509 16.4936L10.5 16.4913V22L14.8013 17.8183L20.2501 19.5L24 2Z" ></path>
  </symbol>
  <symbol  xmlns="http://www.w3.org/2000/svg" viewBox="0 0 18 18" id="icon-person">
    <g clip-path="url(#clip0_405702_1308)">
      <path d="M9 9C10.6575 9 12 7.6575 12 6C12 4.3425 10.6575 3 9 3C7.3425 3 6 4.3425 6 6C6 7.6575 7.3425 9 9 9ZM9 10.5C6.9975 10.5 3 11.505 3 13.5V14.25C3 14.6625 3.3375 15 3.75 15H14.25C14.6625 15 15 14.6625 15 14.25V13.5C15 11.505 11.0025 10.5 9 10.5Z" ></path>
    </g>
    <defs>
      <clipPath id="clip0_405702_1308">
        <rect width="18" height="18" ></rect>
      </clipPath>
    </defs>
  </symbol>
  <symbol xmlns="http://www.w3.org/2000/svg" viewBox="0 0 18 24" id="icon-phone">
    <g clip-path="url(#clip0_297083_8305)">
      <path d="M14.7263 13.8651L12.8881 13.6552C12.4467 13.6046 12.0125 13.7566 11.7013 14.0677L10.3697 15.3993C8.3217 14.3572 6.64276 12.6855 5.60067 10.6303L6.93947 9.29144C7.25065 8.98025 7.40263 8.54605 7.35197 8.1046L7.1421 6.28092C7.05526 5.55 6.44013 5 5.70198 5H4.45002C3.63226 5 2.952 5.68026 3.00266 6.49802C3.38621 12.6783 8.32894 17.6138 14.5019 17.9973C15.3197 18.048 15.9999 17.3677 15.9999 16.55V15.298C16.0072 14.5671 15.4572 13.952 14.7263 13.8651Z" ></path>
    </g>
    <defs>
      <clipPath id="clip0_297083_8305">
        <rect width="18" height="24" ></rect>
      </clipPath>
    </defs>
  </symbol>
</svg>